<?xml version="1.0" encoding="UTF-8" standalone="no"?>
<!-- Created with Inkscape (http://www.inkscape.org/) -->

<svg
   xmlns:dc="http://purl.org/dc/elements/1.1/"
   xmlns:cc="http://creativecommons.org/ns#"
   xmlns:rdf="http://www.w3.org/1999/02/22-rdf-syntax-ns#"
   xmlns:svg="http://www.w3.org/2000/svg"
   xmlns="http://www.w3.org/2000/svg"
   xmlns:sodipodi="http://sodipodi.sourceforge.net/DTD/sodipodi-0.dtd"
   xmlns:inkscape="http://www.inkscape.org/namespaces/inkscape"
   version="1.1"
   id="svg2"
   xml:space="preserve"
   width="4615.4668"
   height="829.06665"
   viewBox="0 0 4615.4668 829.06665"
   sodipodi:docname="Logo La Ventolera.ai.svg"
   inkscape:version="0.92.5 (2060ec1f9f, 2020-04-08)"><metadata
     id="metadata8"><rdf:RDF><cc:Work
         rdf:about=""><dc:format>image/svg+xml</dc:format><dc:type
           rdf:resource="http://purl.org/dc/dcmitype/StillImage" /><dc:title></dc:title></cc:Work></rdf:RDF></metadata><defs
     id="defs6"><clipPath
       clipPathUnits="userSpaceOnUse"
       id="clipPath18"><path
         d="M 0,621.8 H 3461.6 V 0 H 0 Z"
         id="path16"
         inkscape:connector-curvature="0" /></clipPath></defs><sodipodi:namedview
     pagecolor="#ffffff"
     bordercolor="#666666"
     borderopacity="1"
     objecttolerance="10"
     gridtolerance="10"
     guidetolerance="10"
     inkscape:pageopacity="0"
     inkscape:pageshadow="2"
     inkscape:window-width="718"
     inkscape:window-height="480"
     id="namedview4"
     showgrid="false"
     inkscape:zoom="0.10963138"
     inkscape:cx="2148.1076"
     inkscape:cy="414.53333"
     inkscape:window-x="0"
     inkscape:window-y="0"
     inkscape:window-maximized="0"
     inkscape:current-layer="g10" /><g
     id="g10"
     inkscape:groupmode="layer"
     inkscape:label="Logo La Ventolera"
     transform="matrix(1.3333333,0,0,-1.3333333,0,829.06667)"><g
       id="g12"><g
         id="g14"
         clip-path="url(#clipPath18)"><g
           id="g20"
           transform="translate(550.1,169.6)"><path
             d="M 0,0 C -2.6,-5.7 -0.1,-12.5 5.6,-15.2 L 237,-122.3 c 5.7,-2.7 12.5,-0.2 15.2,5.6 2.6,5.7 0.2,12.5 -5.6,15.2 L 15.2,5.6 C 9.5,8.3 2.7,5.8 0,0"
             style="fill:#9b6bdb;fill-opacity:1;fill-rule:nonzero;stroke:none"
             id="path22"
             inkscape:connector-curvature="0" /></g><g
           id="g24"
           transform="translate(495.5,246.3)"><path
             d="m 0,0 c 6.7,-0.8 12.8,4.1 13.6,10.8 l 31.2,273.3 c 0.8,6.8 -4,12.9 -10.8,13.7 -6.7,0.8 -12.8,-4.1 -13.6,-10.8 L -10.8,13.7 C -11.6,6.9 -6.8,0.8 0,0"
             style="fill:#9b6bdb;fill-opacity:1;fill-rule:nonzero;stroke:none"
             id="path26"
             inkscape:connector-curvature="0" /></g><g
           id="g28"
           transform="translate(456.7,216.1)"><path
             d="m 0,0 c 3.6,5.2 2.4,12.3 -2.8,15.9 l -208.3,147 c -5.1,3.6 -12.3,2.4 -15.9,-2.7 -3.6,-5.2 -2.4,-12.3 2.8,-15.9 L -15.9,-2.7 C -10.8,-6.3 -3.7,-5.1 0,0"
             style="fill:#9b6bdb;fill-opacity:1;fill-rule:nonzero;stroke:none"
             id="path30"
             inkscape:connector-curvature="0" /></g><g
           id="g32"
           transform="translate(480.3,87.4)"><path
             d="M 0,0 C 63.4,0.5 114.3,52.2 113.9,115.5 113.5,178.8 61.7,229.8 -1.7,229.4 -65.1,228.9 -116,177.2 -115.6,113.9 -115.1,50.5 -63.4,-0.5 0,0"
             style="fill:#9b6bdb;fill-opacity:1;fill-rule:nonzero;stroke:none"
             id="path34"
             inkscape:connector-curvature="0" /></g><g
           id="g36"
           transform="translate(166.6,388.6)"><path
             d="m 0,0 c -1,-29.7 22.4,-54.6 52.1,-55.5 29.7,-1 54.6,22.4 55.5,52.1 1,29.7 -22.3,54.6 -52.1,55.5 C 25.9,53 1,29.7 0,0"
             style="fill:#9b6bdb;fill-opacity:1;fill-rule:nonzero;stroke:none"
             id="path38"
             inkscape:connector-curvature="0" /></g><g
           id="g40"
           transform="translate(811.1,2.9)"><path
             d="M 0,0 C 25.5,3.8 43.1,27.6 39.3,53.2 35.5,78.7 11.7,96.3 -13.9,92.5 -39.4,88.7 -57,64.9 -53.2,39.4 -49.4,13.8 -25.6,-3.8 0,0"
             style="fill:#9b6bdb;fill-opacity:1;fill-rule:nonzero;stroke:none"
             id="path42"
             inkscape:connector-curvature="0" /></g><g
           id="g44"
           transform="translate(476.8,197.1)"><path
             d="M 0,0 C -2.5,9.1 -11.8,14.4 -20.9,11.9 L -387.1,-88.3 c -9.1,-2.5 -14.4,-11.8 -11.9,-20.9 2.5,-9 11.8,-14.4 20.9,-11.9 L -11.9,-20.8 C -2.9,-18.3 2.4,-9 0,0"
             style="fill:#9b6bdb;fill-opacity:1;fill-rule:nonzero;stroke:none"
             id="path46"
             inkscape:connector-curvature="0" /></g><g
           id="g48"
           transform="translate(535.4,500)"><path
             d="M 0,0 C 33.6,0.2 60.7,27.7 60.5,61.3 60.3,94.9 32.8,122 -0.9,121.8 -34.5,121.6 -61.6,94.1 -61.4,60.5 -61.1,26.8 -33.7,-0.3 0,0"
             style="fill:#9b6bdb;fill-opacity:1;fill-rule:nonzero;stroke:none"
             id="path50"
             inkscape:connector-curvature="0" /></g><g
           id="g52"
           transform="translate(89.9,2.4)"><path
             d="m 0,0 c 49.3,0.4 89,40.6 88.6,89.9 -0.4,49.3 -40.6,89 -89.9,88.6 -49.3,-0.4 -89,-40.6 -88.6,-89.9 C -89.5,39.3 -49.3,-0.4 0,0"
             style="fill:#9b6bdb;fill-opacity:1;fill-rule:nonzero;stroke:none"
             id="path54"
             inkscape:connector-curvature="0" /></g><path
           d="m 850.9,621.7 h 71.4 V 274.1 h -71.4 z"
           style="fill:#9b6bdb;fill-opacity:1;fill-rule:nonzero;stroke:none"
           id="path56"
           inkscape:connector-curvature="0" /><g
           id="g58"
           transform="translate(1147.6,393.1)"><path
             d="m 0,0 c 0,35.7 -23.8,58.1 -56.7,58.1 -32.9,0 -56.7,-22.4 -56.7,-58.1 0,-35.7 23.8,-58.1 56.7,-58.1 C -23.8,-58.1 0,-35.7 0,0 M 71.4,119.1 V -119 H 0 v 22.4 c -15.7,-18.1 -39,-29 -71,-29 -62.4,0 -113.8,54.8 -113.8,125.7 0,70.9 51.4,125.7 113.8,125.7 31.9,0 55.2,-11 71,-29.1 V 119 h 71.4 z"
             style="fill:#9b6bdb;fill-opacity:1;fill-rule:nonzero;stroke:none"
             id="path60"
             inkscape:connector-curvature="0" /></g><g
           id="g62"
           transform="translate(1621.4,512.2)"><path
             d="m 0,0 -88.1,-238.1 h -81 L -257.2,0 h 79 l 49.5,-151 49.5,151 z"
             style="fill:#9b6bdb;fill-opacity:1;fill-rule:nonzero;stroke:none"
             id="path64"
             inkscape:connector-curvature="0" /></g><g
           id="g66"
           transform="translate(1802.9,417.9)"><path
             d="M 0,0 C -7.6,27.6 -29,37.6 -50.5,37.6 -77.7,37.6 -95.7,24.3 -102.4,0 Z m -43.8,-86.7 c 19.5,0 36.2,7.6 45.7,18.1 L 59,-101.5 c -23.3,-32.4 -58.6,-49 -103.8,-49 -81.4,0 -131.9,54.8 -131.9,125.7 0,70.9 51.4,125.7 126.7,125.7 69.5,0 121,-53.8 121,-125.7 0,-9.6 -0.9,-19.2 -2.9,-28.6 H -101 c 9.1,-24.7 31,-33.3 57.2,-33.3"
             style="fill:#9b6bdb;fill-opacity:1;fill-rule:nonzero;stroke:none"
             id="path68"
             inkscape:connector-curvature="0" /></g><g
           id="g70"
           transform="translate(2142.8999,420.3)"><path
             d="m 0,0 v -146.2 h -71.4 v 135.7 c 0,29.5 -18.6,43.3 -41.4,43.3 -26.2,0 -44.3,-15.2 -44.3,-49.1 v -130 h -71.4 V 91.9 h 71.4 V 69.5 c 12.9,17.6 36.7,29.1 68.1,29.1 C -40.9,98.6 0,64.3 0,0"
             style="fill:#9b6bdb;fill-opacity:1;fill-rule:nonzero;stroke:none"
             id="path72"
             inkscape:connector-curvature="0" /></g><g
           id="g74"
           transform="translate(2282.3999,443.6)"><path
             d="m 0,0 v -84.3 c 0,-20.5 17.6,-22.4 49.1,-20.5 v -64.8 c -93.3,-9.5 -120.5,18.6 -120.5,85.3 V 0 h -38.1 v 68.6 h 38.1 v 45.3 L 0,135.3 V 68.6 H 49.1 V 0 Z"
             style="fill:#9b6bdb;fill-opacity:1;fill-rule:nonzero;stroke:none"
             id="path76"
             inkscape:connector-curvature="0" /></g><g
           id="g78"
           transform="translate(2536.3,393.1)"><path
             d="m 0,0 c 0,33.8 -23.8,56.2 -54.8,56.2 -31,0 -54.8,-22.4 -54.8,-56.2 0,-33.8 23.8,-56.2 54.8,-56.2 31,0 54.8,22.4 54.8,56.2 m -181,0 c 0,71 56.2,125.7 126.2,125.7 C 15.2,125.7 71.4,71 71.4,0 71.4,-71 15.2,-125.7 -54.8,-125.7 -124.8,-125.7 -181,-71 -181,0"
             style="fill:#9b6bdb;fill-opacity:1;fill-rule:nonzero;stroke:none"
             id="path80"
             inkscape:connector-curvature="0" /></g><path
           d="m 2648.2,621.7 h 71.4 V 274.1 h -71.4 z"
           style="fill:#9b6bdb;fill-opacity:1;fill-rule:nonzero;stroke:none"
           id="path82"
           inkscape:connector-curvature="0" /><g
           id="g84"
           transform="translate(2936.8,417.9)"><path
             d="M 0,0 C -7.6,27.6 -29.1,37.6 -50.5,37.6 -77.6,37.6 -95.8,24.3 -102.4,0 Z m -43.8,-86.7 c 19.5,0 36.2,7.6 45.7,18.1 L 59,-101.5 c -23.3,-32.4 -58.6,-49 -103.8,-49 -81.4,0 -131.9,54.8 -131.9,125.7 0,70.9 51.4,125.7 126.7,125.7 69.5,0 121,-53.8 121,-125.7 0,-9.6 -0.9,-19.2 -2.9,-28.6 H -101 c 9.1,-24.7 31,-33.3 57.2,-33.3"
             style="fill:#9b6bdb;fill-opacity:1;fill-rule:nonzero;stroke:none"
             id="path86"
             inkscape:connector-curvature="0" /></g><g
           id="g88"
           transform="translate(3191.1001,517)"><path
             d="m 0,0 v -81 c -29.5,4.8 -71.4,-7.1 -71.4,-54.3 v -107.6 h -71.4 V -4.8 h 71.4 V -47.2 C -61.9,-15.3 -30,0 0,0"
             style="fill:#9b6bdb;fill-opacity:1;fill-rule:nonzero;stroke:none"
             id="path90"
             inkscape:connector-curvature="0" /></g><g
           id="g92"
           transform="translate(3390.1001,393.1)"><path
             d="m 0,0 c 0,35.7 -23.8,58.1 -56.7,58.1 -32.9,0 -56.7,-22.4 -56.7,-58.1 0,-35.7 23.8,-58.1 56.7,-58.1 C -23.8,-58.1 0,-35.7 0,0 M 71.5,119.1 V -119 H 0.1 v 22.4 c -15.7,-18.1 -39.1,-29 -71,-29 -62.3,0 -113.8,54.7 -113.8,125.7 0,71 51.4,125.7 113.8,125.7 31.9,0 55.2,-11 71,-29.1 v 22.4 z"
             style="fill:#9b6bdb;fill-opacity:1;fill-rule:nonzero;stroke:none"
             id="path94"
             inkscape:connector-curvature="0" /></g><path
           d="m 1047.845,179.914 h 11.738 V 7.679 h -11.738 z"
           style="fill:#444444;fill-opacity:1;fill-rule:nonzero;stroke:#444444;stroke-width:11.97700024;stroke-linecap:butt;stroke-linejoin:miter;stroke-miterlimit:4;stroke-dasharray:none;stroke-opacity:1"
           id="path96"
           inkscape:connector-curvature="0" /><g
           id="g98"
           transform="translate(1219.2427,66.6077)"><path
             d="M 0,0 C 0,28.147 -21.679,50.305 -49.826,50.305 -77.614,49.227 -99.293,25.871 -98.215,-1.916 -97.257,-28.147 -76.176,-49.347 -49.826,-50.305 -21.799,-50.305 0,-28.147 0,0 M 11.977,58.929 V -59.049 H 0 v 26.59 c -9.941,-17.726 -28.027,-29.225 -50.784,-29.225 -34.016,0 -61.564,27.668 -61.564,61.684 0,34.016 27.548,61.564 61.564,61.564 22.637,0 40.843,-11.618 50.784,-29.225 v 26.71 h 11.977 z"
             style="fill:#444444;fill-opacity:1;fill-rule:nonzero;stroke:none"
             id="path100"
             inkscape:connector-curvature="0" /></g><g
           id="g102"
           transform="translate(1219.2427,66.6077)"><path
             d="M 0,0 C 0,28.147 -21.679,50.305 -49.826,50.305 -77.614,49.227 -99.293,25.871 -98.215,-1.916 -97.257,-28.147 -76.176,-49.347 -49.826,-50.305 -21.799,-50.305 0,-28.147 0,0 Z M 11.977,58.929 V -59.049 H 0 v 26.59 c -9.941,-17.726 -28.027,-29.225 -50.784,-29.225 -34.016,0 -61.564,27.668 -61.564,61.684 0,34.016 27.548,61.564 61.564,61.564 22.637,0 40.843,-11.618 50.784,-29.225 v 26.71 h 11.977 z"
             style="fill:none;stroke:#444444;stroke-width:11.97700024;stroke-linecap:butt;stroke-linejoin:miter;stroke-miterlimit:4;stroke-dasharray:none;stroke-opacity:1"
             id="path104"
             inkscape:connector-curvature="0" /></g><g
           id="g106"
           transform="translate(1398.7843,66.6078)"><path
             d="m 0,0 c -0.12,27.668 -22.637,49.946 -50.305,49.826 -27.668,-0.12 -49.946,-22.637 -49.826,-50.305 0.119,-27.548 22.517,-49.826 50.065,-49.826 27.429,-0.24 49.826,21.918 50.066,49.347 z m 11.858,0 c 0,-34.974 -27.429,-61.564 -61.085,-61.564 -22.877,0 -41.083,11.738 -50.785,29.944 v -27.309 h -11.857 V 106.12 h 11.857 v -74.5 c 9.702,18.206 27.908,29.944 50.785,29.944 33.656,0 61.085,-26.71 61.085,-61.564 z"
             style="fill:#444444;fill-opacity:1;fill-rule:nonzero;stroke:none"
             id="path108"
             inkscape:connector-curvature="0" /></g><g
           id="g110"
           transform="translate(1398.7843,66.6078)"><path
             d="m 0,0 c -0.12,27.668 -22.637,49.946 -50.305,49.826 -27.668,-0.12 -49.946,-22.637 -49.826,-50.305 0.119,-27.548 22.517,-49.826 50.065,-49.826 C -22.637,-50.545 -0.24,-28.387 0,-0.958 V 0 Z m 11.858,0 c 0,-34.974 -27.429,-61.564 -61.085,-61.564 -22.877,0 -41.083,11.738 -50.785,29.944 v -27.309 h -11.857 V 106.12 h 11.857 v -74.5 c 9.702,18.206 27.908,29.944 50.785,29.944 33.656,0 61.085,-26.71 61.085,-61.564 z"
             style="fill:none;stroke:#444444;stroke-width:11.97700024;stroke-linecap:butt;stroke-linejoin:miter;stroke-miterlimit:4;stroke-dasharray:none;stroke-opacity:1"
             id="path112"
             inkscape:connector-curvature="0" /></g><g
           id="g114"
           transform="translate(1562.3961,66.6078)"><path
             d="M 0,0 C 0,28.147 -21.679,50.305 -49.826,50.305 -77.614,49.227 -99.293,25.871 -98.215,-1.916 -97.257,-28.147 -76.177,-49.347 -49.826,-50.305 -21.679,-50.305 0,-28.147 0,0 m -111.869,0 c 0,34.974 27.668,61.564 62.043,61.564 34.255,0 61.803,-26.71 61.803,-61.564 0,-34.854 -27.548,-61.564 -61.803,-61.564 -34.375,0 -62.043,26.59 -62.043,61.564"
             style="fill:#444444;fill-opacity:1;fill-rule:nonzero;stroke:none"
             id="path116"
             inkscape:connector-curvature="0" /></g><g
           id="g118"
           transform="translate(1562.3961,66.6078)"><path
             d="M 0,0 C 0,28.147 -21.679,50.305 -49.826,50.305 -77.614,49.227 -99.293,25.871 -98.215,-1.916 -97.257,-28.147 -76.177,-49.347 -49.826,-50.305 -21.679,-50.305 0,-28.147 0,0 Z m -111.869,0 c 0,34.974 27.668,61.564 62.043,61.564 34.255,0 61.803,-26.71 61.803,-61.564 0,-34.854 -27.548,-61.564 -61.803,-61.564 -34.375,0 -62.043,26.59 -62.043,61.564 z"
             style="fill:none;stroke:#444444;stroke-width:11.97700024;stroke-linecap:butt;stroke-linejoin:miter;stroke-miterlimit:4;stroke-dasharray:none;stroke-opacity:1"
             id="path120"
             inkscape:connector-curvature="0" /></g><g
           id="g122"
           transform="translate(1673.307,127.2135)"><path
             d="m 0,0 v -11.379 c -20.242,0 -39.406,-12.456 -39.406,-42.759 v -65.636 H -51.263 V -1.797 h 11.857 V -24.913 C -31.381,-6.108 -16.05,0 0,0"
             style="fill:#444444;fill-opacity:1;fill-rule:nonzero;stroke:none"
             id="path124"
             inkscape:connector-curvature="0" /></g><g
           id="g126"
           transform="translate(1673.307,127.2135)"><path
             d="m 0,0 v -11.379 c -20.242,0 -39.406,-12.456 -39.406,-42.759 v -65.636 H -51.263 V -1.797 h 11.857 V -24.913 C -31.381,-6.108 -16.05,0 0,0 Z"
             style="fill:none;stroke:#444444;stroke-width:11.97700024;stroke-linecap:butt;stroke-linejoin:miter;stroke-miterlimit:4;stroke-dasharray:none;stroke-opacity:1"
             id="path128"
             inkscape:connector-curvature="0" /></g><g
           id="g130"
           transform="translate(1813.3231,66.6077)"><path
             d="M 0,0 C 0,28.147 -21.679,50.305 -49.826,50.305 -77.614,49.227 -99.293,25.871 -98.215,-1.916 -97.257,-28.147 -76.176,-49.347 -49.826,-50.305 -21.799,-50.305 0,-28.147 0,0 M 11.977,58.929 V -59.049 H -0.12 v 26.59 c -9.941,-17.726 -28.027,-29.225 -50.784,-29.225 -34.016,0 -61.564,27.668 -61.564,61.684 0,34.016 27.548,61.564 61.564,61.564 22.637,0 40.843,-11.618 50.784,-29.225 v 26.71 h 12.097 z"
             style="fill:#444444;fill-opacity:1;fill-rule:nonzero;stroke:none"
             id="path132"
             inkscape:connector-curvature="0" /></g><g
           id="g134"
           transform="translate(1813.3231,66.6077)"><path
             d="M 0,0 C 0,28.147 -21.679,50.305 -49.826,50.305 -77.614,49.227 -99.293,25.871 -98.215,-1.916 -97.257,-28.147 -76.176,-49.347 -49.826,-50.305 -21.799,-50.305 0,-28.147 0,0 Z M 11.977,58.929 V -59.049 H -0.12 v 26.59 c -9.941,-17.726 -28.027,-29.225 -50.784,-29.225 -34.016,0 -61.564,27.668 -61.564,61.684 0,34.016 27.548,61.564 61.564,61.564 22.637,0 40.843,-11.618 50.784,-29.225 v 26.71 h 12.097 z"
             style="fill:none;stroke:#444444;stroke-width:11.97700024;stroke-linecap:butt;stroke-linejoin:miter;stroke-miterlimit:4;stroke-dasharray:none;stroke-opacity:1"
             id="path136"
             inkscape:connector-curvature="0" /></g><g
           id="g138"
           transform="translate(1906.2681,114.0383)"><path
             d="m 0,0 v -76.656 c 0,-20.72 11.139,-21.2 35.214,-19.163 v -10.541 c -30.902,-4.671 -47.191,2.875 -47.191,29.704 V 0 h -25.991 v 11.618 h 25.991 V 41.083 L 0.12,44.676 V 11.618 H 35.333 V 0 Z"
             style="fill:#444444;fill-opacity:1;fill-rule:nonzero;stroke:none"
             id="path140"
             inkscape:connector-curvature="0" /></g><g
           id="g142"
           transform="translate(1906.2681,114.0383)"><path
             d="m 0,0 v -76.656 c 0,-20.72 11.139,-21.2 35.214,-19.163 v -10.541 c -30.902,-4.671 -47.191,2.875 -47.191,29.704 V 0 h -25.991 v 11.618 h 25.991 V 41.083 L 0.12,44.676 V 11.618 H 35.333 V 0 Z"
             style="fill:none;stroke:#444444;stroke-width:11.97700024;stroke-linecap:butt;stroke-linejoin:miter;stroke-miterlimit:4;stroke-dasharray:none;stroke-opacity:1"
             id="path144"
             inkscape:connector-curvature="0" /></g><g
           id="g146"
           transform="translate(2085.9292,66.6078)"><path
             d="M 0,0 C 0,28.147 -21.679,50.305 -49.826,50.305 -77.614,49.227 -99.293,25.871 -98.215,-1.916 -97.257,-28.147 -76.177,-49.347 -49.826,-50.305 -21.799,-50.305 0,-28.147 0,0 m -111.869,0 c 0,34.974 27.668,61.564 62.043,61.564 34.256,0 61.804,-26.71 61.804,-61.564 0,-34.854 -27.668,-61.564 -61.804,-61.564 -34.495,0 -62.043,26.59 -62.043,61.564"
             style="fill:#444444;fill-opacity:1;fill-rule:nonzero;stroke:none"
             id="path148"
             inkscape:connector-curvature="0" /></g><g
           id="g150"
           transform="translate(2085.9292,66.6078)"><path
             d="M 0,0 C 0,28.147 -21.679,50.305 -49.826,50.305 -77.614,49.227 -99.293,25.871 -98.215,-1.916 -97.257,-28.147 -76.177,-49.347 -49.826,-50.305 -21.799,-50.305 0,-28.147 0,0 Z m -111.869,0 c 0,34.974 27.668,61.564 62.043,61.564 34.256,0 61.804,-26.71 61.804,-61.564 0,-34.854 -27.668,-61.564 -61.804,-61.564 -34.495,0 -62.043,26.59 -62.043,61.564 z"
             style="fill:none;stroke:#444444;stroke-width:11.97700024;stroke-linecap:butt;stroke-linejoin:miter;stroke-miterlimit:4;stroke-dasharray:none;stroke-opacity:1"
             id="path152"
             inkscape:connector-curvature="0" /></g><g
           id="g154"
           transform="translate(2196.8403,127.2135)"><path
             d="m 0,0 v -11.379 c -20.242,0 -39.406,-12.456 -39.406,-42.759 v -65.636 H -51.263 V -1.797 h 11.857 V -24.913 C -31.381,-6.108 -16.169,0 0,0"
             style="fill:#444444;fill-opacity:1;fill-rule:nonzero;stroke:none"
             id="path156"
             inkscape:connector-curvature="0" /></g><g
           id="g158"
           transform="translate(2196.8403,127.2135)"><path
             d="m 0,0 v -11.379 c -20.242,0 -39.406,-12.456 -39.406,-42.759 v -65.636 H -51.263 V -1.797 h 11.857 V -24.913 C -31.381,-6.108 -16.169,0 0,0 Z"
             style="fill:none;stroke:#444444;stroke-width:11.97700024;stroke-linecap:butt;stroke-linejoin:miter;stroke-miterlimit:4;stroke-dasharray:none;stroke-opacity:1"
             id="path160"
             inkscape:connector-curvature="0" /></g><path
           d="m 2240.079,125.537 h 11.857 V 7.559 h -11.857 z m -3.593,38.088 c 0,5.27 4.192,9.462 9.462,9.462 5.27,0 9.462,-4.192 9.462,-9.462 0,-5.27 -4.192,-9.462 -9.462,-9.462 -5.27,0 -9.462,4.192 -9.462,9.462 0,-0.12 0,0 0,0"
           style="fill:#444444;fill-opacity:1;fill-rule:nonzero;stroke:none"
           id="path162"
           inkscape:connector-curvature="0" /><path
           d="m 2240.079,125.537 h 11.857 V 7.559 h -11.857 z m -3.593,38.088 c 0,5.27 4.192,9.462 9.462,9.462 5.27,0 9.462,-4.192 9.462,-9.462 0,-5.27 -4.192,-9.462 -9.462,-9.462 -5.27,0 -9.462,4.192 -9.462,9.462 0,-0.12 0,0 0,0 z"
           style="fill:none;stroke:#444444;stroke-width:11.97700024;stroke-linecap:butt;stroke-linejoin:miter;stroke-miterlimit:4;stroke-dasharray:none;stroke-opacity:1"
           id="path164"
           inkscape:connector-curvature="0" /><g
           id="g166"
           transform="translate(2411.3564,66.6078)"><path
             d="M 0,0 C 0,28.147 -21.679,50.305 -49.826,50.305 -77.614,49.227 -99.293,25.871 -98.215,-1.916 -97.257,-28.147 -76.177,-49.347 -49.826,-50.305 -21.679,-50.305 0,-28.147 0,0 m -111.869,0 c 0,34.974 27.548,61.564 62.043,61.564 34.255,0 61.804,-26.71 61.804,-61.564 0,-34.854 -27.668,-61.564 -61.804,-61.564 -34.495,0 -62.043,26.59 -62.043,61.564"
             style="fill:#444444;fill-opacity:1;fill-rule:nonzero;stroke:none"
             id="path168"
             inkscape:connector-curvature="0" /></g><g
           id="g170"
           transform="translate(2411.3564,66.6078)"><path
             d="M 0,0 C 0,28.147 -21.679,50.305 -49.826,50.305 -77.614,49.227 -99.293,25.871 -98.215,-1.916 -97.257,-28.147 -76.177,-49.347 -49.826,-50.305 -21.679,-50.305 0,-28.147 0,0 Z m -111.869,0 c 0,34.974 27.548,61.564 62.043,61.564 34.255,0 61.804,-26.71 61.804,-61.564 0,-34.854 -27.668,-61.564 -61.804,-61.564 -34.495,0 -62.043,26.59 -62.043,61.564 z"
             style="fill:none;stroke:#444444;stroke-width:11.97700024;stroke-linecap:butt;stroke-linejoin:miter;stroke-miterlimit:4;stroke-dasharray:none;stroke-opacity:1"
             id="path172"
             inkscape:connector-curvature="0" /></g><g
           id="g174"
           transform="translate(2545.3838,66.6078)"><path
             d="m 0,0 c 0,34.974 26.47,61.564 62.043,61.564 23.116,0 42.999,-11.738 51.503,-30.183 l -9.702,-5.63 C 97.017,40.604 80.967,50.305 62.043,50.305 33.537,50.305 11.977,28.147 11.977,0 c 0,-28.147 21.44,-50.305 50.066,-50.305 19.164,0 34.735,9.941 42.52,24.554 l 9.941,-5.869 C 105.042,-49.826 85.28,-61.564 62.043,-61.564 26.47,-61.564 0,-34.974 0,0"
             style="fill:#444444;fill-opacity:1;fill-rule:nonzero;stroke:none"
             id="path176"
             inkscape:connector-curvature="0" /></g><g
           id="g178"
           transform="translate(2545.3838,66.6078)"><path
             d="m 0,0 c 0,34.974 26.47,61.564 62.043,61.564 23.116,0 42.999,-11.738 51.503,-30.183 l -9.702,-5.63 C 97.017,40.604 80.967,50.305 62.043,50.305 33.537,50.305 11.977,28.147 11.977,0 c 0,-28.147 21.44,-50.305 50.066,-50.305 19.164,0 34.735,9.941 42.52,24.554 l 9.941,-5.869 C 105.042,-49.826 85.28,-61.564 62.043,-61.564 26.47,-61.564 0,-34.974 0,0 Z"
             style="fill:none;stroke:#444444;stroke-width:11.97700024;stroke-linecap:butt;stroke-linejoin:miter;stroke-miterlimit:4;stroke-dasharray:none;stroke-opacity:1"
             id="path180"
             inkscape:connector-curvature="0" /></g><g
           id="g182"
           transform="translate(2801.9404,125.5367)"><path
             d="m 0,0 v -117.978 h -11.857 v 22.398 c -8.984,-17.487 -24.075,-25.033 -42.281,-25.033 -28.027,0 -45.754,18.685 -45.754,47.191 V 0 h 11.978 v -73.422 c 0,-21.679 12.456,-35.932 34.734,-35.932 23.117,0 41.323,15.092 41.323,46.952 V -0.12 Z"
             style="fill:#444444;fill-opacity:1;fill-rule:nonzero;stroke:none"
             id="path184"
             inkscape:connector-curvature="0" /></g><g
           id="g186"
           transform="translate(2801.9404,125.5367)"><path
             d="m 0,0 v -117.978 h -11.857 v 22.398 c -8.984,-17.487 -24.075,-25.033 -42.281,-25.033 -28.027,0 -45.754,18.685 -45.754,47.191 V 0 h 11.978 v -73.422 c 0,-21.679 12.456,-35.932 34.734,-35.932 23.117,0 41.323,15.092 41.323,46.952 V -0.12 Z"
             style="fill:none;stroke:#444444;stroke-width:11.97700024;stroke-linecap:butt;stroke-linejoin:miter;stroke-miterlimit:4;stroke-dasharray:none;stroke-opacity:1"
             id="path188"
             inkscape:connector-curvature="0" /></g><g
           id="g190"
           transform="translate(2857.6355,179.9142)"><path
             d="M 0,0 H 11.738 V -172.235 H -0.12 Z"
             style="fill:#444444;fill-opacity:1;fill-rule:nonzero;stroke:none"
             id="path192"
             inkscape:connector-curvature="0" /></g><g
           id="g194"
           transform="translate(2857.6355,179.9142)"><path
             d="M 0,0 H 11.738 V -172.235 H -0.12 Z"
             style="fill:none;stroke:#444444;stroke-width:11.97700024;stroke-linecap:butt;stroke-linejoin:miter;stroke-miterlimit:4;stroke-dasharray:none;stroke-opacity:1"
             id="path196"
             inkscape:connector-curvature="0" /></g><g
           id="g198"
           transform="translate(2950.4607,114.0383)"><path
             d="m 0,0 v -76.656 c 0,-20.72 11.139,-21.2 35.213,-19.163 v -10.541 c -30.901,-4.671 -47.191,2.875 -47.191,29.704 V 0 h -25.991 v 11.618 h 25.991 V 41.083 L 0,44.676 V 11.618 H 35.213 V 0 Z"
             style="fill:#444444;fill-opacity:1;fill-rule:nonzero;stroke:none"
             id="path200"
             inkscape:connector-curvature="0" /></g><g
           id="g202"
           transform="translate(2950.4607,114.0383)"><path
             d="m 0,0 v -76.656 c 0,-20.72 11.139,-21.2 35.213,-19.163 v -10.541 c -30.901,-4.671 -47.191,2.875 -47.191,29.704 V 0 h -25.991 v 11.618 h 25.991 V 41.083 L 0,44.676 V 11.618 H 35.213 V 0 Z"
             style="fill:none;stroke:#444444;stroke-width:11.97700024;stroke-linecap:butt;stroke-linejoin:miter;stroke-miterlimit:4;stroke-dasharray:none;stroke-opacity:1"
             id="path204"
             inkscape:connector-curvature="0" /></g><g
           id="g206"
           transform="translate(3130.0022,125.5367)"><path
             d="m 0,0 v -117.978 h -11.857 v 22.398 c -8.984,-17.487 -24.075,-25.033 -42.281,-25.033 -28.027,0 -45.754,18.685 -45.754,47.191 V 0 h 12.098 v -73.422 c 0,-21.679 12.456,-35.932 34.734,-35.932 23.117,0 41.322,15.092 41.322,46.952 V -0.12 Z"
             style="fill:#444444;fill-opacity:1;fill-rule:nonzero;stroke:none"
             id="path208"
             inkscape:connector-curvature="0" /></g><g
           id="g210"
           transform="translate(3130.0022,125.5367)"><path
             d="m 0,0 v -117.978 h -11.857 v 22.398 c -8.984,-17.487 -24.075,-25.033 -42.281,-25.033 -28.027,0 -45.754,18.685 -45.754,47.191 V 0 h 12.098 v -73.422 c 0,-21.679 12.456,-35.932 34.734,-35.932 23.117,0 41.322,15.092 41.322,46.952 V -0.12 Z"
             style="fill:none;stroke:#444444;stroke-width:11.97700024;stroke-linecap:butt;stroke-linejoin:miter;stroke-miterlimit:4;stroke-dasharray:none;stroke-opacity:1"
             id="path212"
             inkscape:connector-curvature="0" /></g><g
           id="g214"
           transform="translate(3236.9607,127.2135)"><path
             d="m 0,0 v -11.379 c -20.362,0 -39.406,-12.456 -39.406,-42.759 v -65.636 H -51.263 V -1.797 h 11.857 V -24.913 C -31.381,-6.108 -16.05,0 0,0"
             style="fill:#444444;fill-opacity:1;fill-rule:nonzero;stroke:none"
             id="path216"
             inkscape:connector-curvature="0" /></g><g
           id="g218"
           transform="translate(3236.9607,127.2135)"><path
             d="m 0,0 v -11.379 c -20.362,0 -39.406,-12.456 -39.406,-42.759 v -65.636 H -51.263 V -1.797 h 11.857 V -24.913 C -31.381,-6.108 -16.05,0 0,0 Z"
             style="fill:none;stroke:#444444;stroke-width:11.97700024;stroke-linecap:butt;stroke-linejoin:miter;stroke-miterlimit:4;stroke-dasharray:none;stroke-opacity:1"
             id="path220"
             inkscape:connector-curvature="0" /></g><g
           id="g222"
           transform="translate(3376.9768,66.6077)"><path
             d="M 0,0 C 0,28.147 -21.679,50.305 -49.826,50.305 -77.614,49.227 -99.293,25.871 -98.215,-1.916 -97.257,-28.147 -76.177,-49.347 -49.826,-50.305 -21.799,-50.305 -0.12,-28.147 0,0 M 11.978,58.929 V -59.049 H 0 v 26.59 c -9.941,-17.726 -28.027,-29.225 -50.784,-29.225 -34.016,0 -61.564,27.668 -61.564,61.684 0,34.016 27.548,61.564 61.564,61.564 22.637,0 40.843,-11.618 50.784,-29.225 v 26.71 h 11.978 z"
             style="fill:#444444;fill-opacity:1;fill-rule:nonzero;stroke:none"
             id="path224"
             inkscape:connector-curvature="0" /></g><g
           id="g226"
           transform="translate(3376.9768,66.6077)"><path
             d="M 0,0 C 0,28.147 -21.679,50.305 -49.826,50.305 -77.614,49.227 -99.293,25.871 -98.215,-1.916 -97.257,-28.147 -76.177,-49.347 -49.826,-50.305 -21.799,-50.305 -0.12,-28.147 0,0 Z M 11.978,58.929 V -59.049 H 0 v 26.59 c -9.941,-17.726 -28.027,-29.225 -50.784,-29.225 -34.016,0 -61.564,27.668 -61.564,61.684 0,34.016 27.548,61.564 61.564,61.564 22.637,0 40.843,-11.618 50.784,-29.225 v 26.71 h 11.978 z"
             style="fill:none;stroke:#444444;stroke-width:11.97700024;stroke-linecap:butt;stroke-linejoin:miter;stroke-miterlimit:4;stroke-dasharray:none;stroke-opacity:1"
             id="path228"
             inkscape:connector-curvature="0" /></g><path
           d="m 3444.649,179.914 h 11.857 V 7.679 h -11.857 z"
           style="fill:#444444;fill-opacity:1;fill-rule:nonzero;stroke:#444444;stroke-width:11.97700024;stroke-linecap:butt;stroke-linejoin:miter;stroke-miterlimit:4;stroke-dasharray:none;stroke-opacity:1"
           id="path230"
           inkscape:connector-curvature="0" /></g></g></g></svg>