<?xml version="1.0" encoding="UTF-8" standalone="no"?>
<!-- Generator: Adobe Illustrator 25.4.1, SVG Export Plug-In . SVG Version: 6.00 Build 0)  -->

<svg
   xmlns:dc="http://purl.org/dc/elements/1.1/"
   xmlns:cc="http://creativecommons.org/ns#"
   xmlns:rdf="http://www.w3.org/1999/02/22-rdf-syntax-ns#"
   xmlns:svg="http://www.w3.org/2000/svg"
   xmlns="http://www.w3.org/2000/svg"
   xmlns:sodipodi="http://sodipodi.sourceforge.net/DTD/sodipodi-0.dtd"
   xmlns:inkscape="http://www.inkscape.org/namespaces/inkscape"
   version="1.1"
   id="Capa_1"
   x="0px"
   y="0px"
   viewBox="0 0 368.86999 233.98999"
   xml:space="preserve"
   sodipodi:docname="Marca Liberar.svg"
   width="368.87"
   height="233.99001"
   inkscape:version="0.92.5 (2060ec1f9f, 2020-04-08)"><metadata
   id="metadata55"><rdf:RDF><cc:Work
       rdf:about=""><dc:format>image/svg+xml</dc:format><dc:type
         rdf:resource="http://purl.org/dc/dcmitype/StillImage" /><dc:title></dc:title></cc:Work></rdf:RDF></metadata><defs
   id="defs53" /><sodipodi:namedview
   pagecolor="#ffffff"
   bordercolor="#666666"
   borderopacity="1"
   objecttolerance="10"
   gridtolerance="10"
   guidetolerance="10"
   inkscape:pageopacity="0"
   inkscape:pageshadow="2"
   inkscape:window-width="718"
   inkscape:window-height="480"
   id="namedview51"
   showgrid="false"
   fit-margin-top="0"
   fit-margin-left="0"
   fit-margin-right="0"
   fit-margin-bottom="0"
   inkscape:zoom="0.39645207"
   inkscape:cx="136.78348"
   inkscape:cy="105.78999"
   inkscape:window-x="0"
   inkscape:window-y="0"
   inkscape:window-maximized="0"
   inkscape:current-layer="Capa_1" />
<style
   type="text/css"
   id="style2">
	.st0{fill:#E30D18;}
</style>
<g
   id="g6"
   transform="translate(-240.02,-169.44)">
	<path
   class="st0"
   d="m 287.13,203.19 4.48,-7.83 3.33,-3.21 v -0.26 l -4.61,1.28 h -8.84 v -8.96 h 8.84 l 4.35,1.28 h 0.26 l -3.33,-3.26 -4.48,-8.22 7.81,-4.57 4.61,7.94 1.28,4.61 1.28,-4.61 4.61,-7.94 7.68,4.49 -4.48,8.09 -3.2,3.21 v 0.26 l 4.74,-1.28 h 8.83 v 8.96 h -8.83 l -4.48,-1.28 h -0.26 l 3.2,3.26 4.48,7.96 -7.68,4.57 -4.61,-7.7 -1.02,-4.62 -1.54,4.62 -4.61,7.7 z"
   id="path4"
   inkscape:connector-curvature="0"
   style="fill:#e30d18" />
</g>
<g
   id="g24"
   transform="translate(-240.02,-169.44)">
	<g
   id="g22">
		<path
   d="M 241.38,331.08 V 218.73 h 18.69 v 94.44 h 25.31 v 17.9 h -44 z"
   id="path8"
   inkscape:connector-curvature="0" />
		<path
   d="m 292.89,218.73 h 18.69 v 112.35 h -18.69 z"
   id="path10"
   inkscape:connector-curvature="0" />
		<path
   d="m 324.15,218.73 25.87,0.06 c 15.04,0 22.56,8.08 22.56,24.24 v 16.55 c 0,7.63 -2.5,12.74 -7.52,15.32 5.01,2.58 7.52,7.69 7.52,15.32 v 16.61 c 0,16.13 -7.52,24.19 -22.56,24.19 -0.19,0 -0.51,0.02 -0.96,0.05 H 324.14 V 218.73 Z m 18.69,17.9 v 29.3 h 3.59 c 2.02,0 3.33,-0.12 3.92,-0.34 2.36,-0.93 3.54,-2.93 3.54,-6 v -16.55 c 0,-4.26 -1.83,-6.4 -5.5,-6.4 h -5.55 z m 0,47.26 v 29.29 h 5.55 c 3.66,0 5.5,-2.11 5.5,-6.34 v -16.61 c 0,-3.07 -1.18,-5.05 -3.54,-5.95 -0.64,-0.26 -1.94,-0.39 -3.92,-0.39 z"
   id="path12"
   inkscape:connector-curvature="0" />
		<path
   d="m 383.19,218.73 h 44 v 17.9 h -25.31 v 29.3 h 21.77 v 17.96 h -21.77 v 29.29 h 25.31 v 17.9 h -44 z"
   id="path14"
   inkscape:connector-curvature="0" />
		<path
   d="m 436.67,218.73 24.52,0.06 c 15.04,0 22.56,8.08 22.56,24.24 v 16.55 c 0,10.18 -4.08,16.76 -12.24,19.75 l 18.01,51.74 h -20.37 l -14.26,-48.26 0.45,-0.05 v 48.31 H 436.65 V 218.73 Z m 18.69,17.9 v 29.3 h 2.24 c 2.02,0 3.33,-0.12 3.93,-0.34 2.35,-0.93 3.53,-2.93 3.53,-6 v -16.55 c 0,-4.26 -1.83,-6.4 -5.5,-6.4 h -4.2 z"
   id="path16"
   inkscape:connector-curvature="0" />
		<path
   d="m 543.46,290.79 5.33,40.29 h -18.86 l -3.09,-23.34 H 513.1 l -3.14,23.34 h -18.8 l 5.33,-40.12 11.39,-72.22 h 24.24 z m -19.02,-1.01 -4.49,-34.01 -4.49,34.01 z"
   id="path18"
   inkscape:connector-curvature="0" />
		<path
   d="m 556.04,218.73 24.52,0.06 c 15.04,0 22.56,8.08 22.56,24.24 v 16.55 c 0,10.18 -4.08,16.76 -12.24,19.75 l 18.01,51.74 h -20.37 l -14.26,-48.26 0.45,-0.05 v 48.31 H 556.03 V 218.73 Z m 18.68,17.9 v 29.3 h 2.25 c 2.02,0 3.33,-0.12 3.93,-0.34 2.35,-0.93 3.53,-2.93 3.53,-6 v -16.55 c 0,-4.26 -1.83,-6.4 -5.5,-6.4 h -4.21 z"
   id="path20"
   inkscape:connector-curvature="0" />
	</g>
</g>
<g
   id="g48"
   transform="translate(-240.02,-169.44)">
	<g
   id="g46">
		<path
   class="st0"
   d="m 260.77,393.02 c 0,6.93 -3.46,10.4 -10.39,10.41 -6.91,0 -10.36,-3.47 -10.36,-10.41 v -28.86 c 0,-6.93 3.45,-10.39 10.36,-10.39 6.93,0 10.39,3.46 10.39,10.39 v 6.83 h -8.01 v -6.83 c 0,-1.8 -0.79,-2.7 -2.36,-2.72 h -0.05 c -1.56,0 -2.33,0.91 -2.33,2.72 v 28.86 c 0,1.81 0.78,2.72 2.35,2.72 1.59,0 2.38,-0.9 2.38,-2.72 v -6.83 h 8.01 v 6.83 z"
   id="path26"
   inkscape:connector-curvature="0"
   style="fill:#e30d18" />
		<path
   class="st0"
   d="m 300.71,393.02 c 0,6.93 -3.46,10.4 -10.39,10.41 -6.91,0 -10.36,-3.47 -10.36,-10.41 v -28.86 c 0,-6.93 3.45,-10.39 10.36,-10.39 6.93,0 10.39,3.46 10.39,10.39 z m -8.01,-28.86 c 0,-1.8 -0.79,-2.7 -2.36,-2.72 h -0.05 c -1.55,0 -2.33,0.91 -2.33,2.72 v 28.86 c 0,1.81 0.78,2.72 2.35,2.72 1.59,0 2.38,-0.9 2.38,-2.72 v -28.86 z"
   id="path28"
   inkscape:connector-curvature="0"
   style="fill:#e30d18" />
		<path
   class="st0"
   d="m 320.62,354.52 h 7.91 l 5.34,22.7 v -22.58 l 7.5,-0.12 v 48.15 h -7.91 l -5.1,-21.82 v 21.82 h -7.74 z"
   id="path30"
   inkscape:connector-curvature="0"
   style="fill:#e30d18" />
		<path
   class="st0"
   d="m 380.59,354.52 v 7.67 h -6.38 v 40.48 h -8.01 v -40.48 h -6.37 v -7.67 z"
   id="path32"
   inkscape:connector-curvature="0"
   style="fill:#e30d18" />
		<path
   class="st0"
   d="m 399.06,354.52 h 18.86 v 7.67 h -10.84 v 12.56 h 9.33 v 7.7 h -9.33 V 395 h 10.84 v 7.67 h -18.86 z"
   id="path34"
   inkscape:connector-curvature="0"
   style="fill:#e30d18" />
		<path
   class="st0"
   d="m 437.1,354.52 h 7.91 l 5.34,22.7 v -22.58 l 7.5,-0.12 v 48.15 h -7.91 l -5.1,-21.82 v 21.82 h -7.74 z"
   id="path36"
   inkscape:connector-curvature="0"
   style="fill:#e30d18" />
		<path
   class="st0"
   d="m 478.37,354.52 h 8.01 v 48.15 h -8.01 z"
   id="path38"
   inkscape:connector-curvature="0"
   style="fill:#e30d18" />
		<path
   class="st0"
   d="m 506.88,354.52 11.08,0.03 c 6.45,0 9.67,3.46 9.67,10.39 v 27.34 c 0,6.91 -3.23,10.37 -9.67,10.37 -0.08,0 -0.21,0.01 -0.41,0.02 h -10.68 v -48.15 z m 8.01,7.67 v 32.8 h 2.38 c 1.57,0 2.36,-0.9 2.36,-2.72 v -27.34 c 0,-1.83 -0.79,-2.75 -2.36,-2.75 h -2.38 z"
   id="path40"
   inkscape:connector-curvature="0"
   style="fill:#e30d18" />
		<path
   class="st0"
   d="m 567.82,393.02 c 0,6.93 -3.46,10.4 -10.39,10.41 -6.91,0 -10.36,-3.47 -10.36,-10.41 v -28.86 c 0,-6.93 3.45,-10.39 10.36,-10.39 6.93,0 10.39,3.46 10.39,10.39 z m -8.01,-28.86 c 0,-1.8 -0.79,-2.7 -2.36,-2.72 h -0.05 c -1.56,0 -2.33,0.91 -2.33,2.72 v 28.86 c 0,1.81 0.78,2.72 2.35,2.72 1.59,0 2.38,-0.9 2.38,-2.72 v -28.86 z"
   id="path42"
   inkscape:connector-curvature="0"
   style="fill:#e30d18" />
		<path
   class="st0"
   d="m 587.25,364.16 c 0,-6.93 3.45,-10.39 10.37,-10.39 6.93,0 10.39,3.46 10.39,10.39 v 6.83 H 600 v -6.83 c 0,-1.8 -0.79,-2.7 -2.36,-2.72 h -0.05 c -1.56,0 -2.34,0.91 -2.34,2.72 v 4.28 c 0,1.96 2.05,4.41 6.16,7.36 4.39,3.12 6.59,6.88 6.59,11.25 v 5.96 c 0,6.94 -3.46,10.41 -10.37,10.41 -6.93,-0.02 -10.39,-3.49 -10.39,-10.41 v -6.83 h 8.01 v 6.83 c 0,1.81 0.8,2.72 2.38,2.72 1.57,0 2.36,-0.9 2.36,-2.72 v -5.39 c 0,-2.13 -2.05,-4.68 -6.16,-7.63 -4.39,-3.13 -6.59,-6.93 -6.59,-11.42 v -4.41 z"
   id="path44"
   inkscape:connector-curvature="0"
   style="fill:#e30d18" />
	</g>
</g>
</svg>