<svg version="1.1" id="svg4702" xmlns:dc="http://purl.org/dc/elements/1.1/" xmlns:cc="http://creativecommons.org/ns#" xmlns:rdf="http://www.w3.org/1999/02/22-rdf-syntax-ns#" xmlns:svg="http://www.w3.org/2000/svg" xmlns="http://www.w3.org/2000/svg" xmlns:xlink="http://www.w3.org/1999/xlink" x="0px" y="0px" viewBox="-100 192.3 410.5 409.7" style="enable-background:new -100 192.3 410.5 409.7;" xml:space="preserve"><path id="path5252" d="M88,601.6c-6.4-0.4-12.9-1.1-19.2-2.5c-1.3-0.3-3.7-0.5-4.5-1.7c-1.6-2.2,1.9-3.5,3.5-3.7&#10;&#9;c5.9-0.6,12.1,0,17.9,1c2.5,0.4,5,0.9,7.2,1.9c0.7,0.3,1.4,0.7,2.1,1.1c0.2,0.1,0.9,0.7,1.1,0.6c0.2,0,0.4-0.4,0.6-0.6&#10;&#9;c1.2-1.3,2.9-1.6,4.6-1.9c4.2-0.7,8.6-0.9,12.9-1.1c7.1-0.4,14.1-0.7,21.2-0.8c3.9-0.1,8.1-0.3,11.9,0.5c1.3,0.3,3.9,1.2,3.3,3.1&#10;&#9;c-0.3,1-1.9,0.6-2.6,0.4c-1.3-0.3-2.7-0.7-4.1-0.4c-1.3,0.3-2.2,1.3-3.5,1.8c-1.1,0.4-2.2-1.1-2.9-1.7c-0.2-0.2-2.6-2.8-2.9-2.5&#10;&#9;c-0.2,0.1,0.8,3,0.8,3.4c0.1,0.5,0.3,1.5-0.1,1.8c-0.3,0.3-1.2,0.2-1.5,0.3c-2.7,0.3-5.4,0.4-8.2,0.6c-7.6,0.4-15.2,0.7-22.9,0.7&#10;&#9;C97.9,602,92.9,601.9,88,601.6z M154.4,594c0-1.3,0.6-3.9,2.1-4.3c1.2-0.3,2.5,0,3.7-0.3c1.4-0.3,2.8-1,4.1-1.6&#10;&#9;c2.5-1.2,5-2.4,7.5-3.6c4.6-2.2,9.2-4.3,13.8-6.3c2.8-1.2,5.6-2.5,8.5-3.5c0.4-0.1,1.3-0.6,1.8-0.5c0.9,0.2,0.7,2.3,0.7,3&#10;&#9;c0,0.6,0,1.6-0.5,2c-0.6,0.5-1.9,0.1-2.6,0.1c-2.1-0.2-4,0.6-5.7,1.8c-1.4,1-2.8,2.4-3.7,3.9c-0.2,0.3-0.6,0.9-0.4,1.3&#10;&#9;c0.2,0.3,0.7,0.1,0.7,0.4c0,0.4-1.3,1.1-1.5,1.2c-1.1,0.7-2.4,1.3-3.6,1.8c-1.5,0.6-3.1,1.2-4.6,1.7c-4.2,1.4-8.4,2.5-12.7,3.5&#10;&#9;c-1.6,0.4-3.2,0.7-4.9,0.9c-0.6,0.1-1.3,0.2-1.9,0C154.3,595.4,154.3,594.8,154.4,594z M43,593.4c-2.7-0.5-5.4-1.2-8-2.2&#10;&#9;c-1.9-0.7-4-1.4-5.6-2.7c-0.5-0.3-0.8-0.8-1.3-1.2c-0.5-0.5-0.4-0.4,0.1-1c0.7-0.7,1.4-1.5,2.2-2.2c-1,0-2.9,0.3-3.5-0.5&#10;&#9;c-0.7-0.8,0.5-1.5,1.2-1.6c1.4-0.3,2.9-0.1,4.2,0.1c2.1,0.3,4.1,0.8,6.1,1.4c4.6,1.3,9.2,2.9,13.4,5.2c1,0.6,4.5,2.4,2.6,3.8&#10;&#9;c-1.3,0.9-3.3,1-4.8,1.1C47.3,593.8,45.1,593.8,43,593.4z M91.9,591.5c-1.7-0.2-3.4-0.4-5-0.7c-0.9-0.2-2.1-0.3-3-0.8&#10;&#9;c-1.4-0.8,1.2-1.6,0.5-2.4c-0.3-0.4-2-0.2-2.4-0.3c-6.6-0.5-13.1-0.4-19.6-1.7c-6.9-1.3-13.8-3.4-20.3-5.9c-2.6-1-5.2-2.2-7.6-3.5&#10;&#9;c-2.2-1.2-4-3-6.1-4.2c-0.5-0.3-1.5-0.9-2-0.2c-0.4,0.6-0.2,2-1.2,1.6c-1.1-0.4-2.5-2.1-2.6-3.2c-0.2-1.5,1.2-2.7,1.9-3.9&#10;&#9;c0.6-0.9,0.9-1.6,0.3-2.5c-0.6-1-1.7-1.8-2.7-2.5c-4.9-3.6-10.4-6.3-15.5-9.6c-1.3-0.8-2.5-1.7-3.8-2.5c-0.6-0.4-1.6-1-1.9-1.6&#10;&#9;C0.7,547.1,0.6,547,1,547c0.5,0,1.2,0.5,1.7,0.7c5.4,2.7,10.6,5.9,15.8,9c5.3,3.2,10.8,6.1,16.1,9.3c0.1,0.1,1.9,1.1,1.8,1.2&#10;&#9;c-0.1,0.2-2.9-0.6-3.1-0.6c-1.3-0.3-2.6-0.6-4-0.8c-0.8-0.1-2.8-0.4-2.2,1c0.8,1.7,2.7,3.3,4.6,3.6c1.5,0.2,3.1-0.1,4.7-0.2&#10;&#9;c-0.5,0.4-3.1,2.2-2.8,2.7c0.2,0.3,1.6,0.3,1.8,0.3c1.3,0.1,2.6,0.2,4,0.3c4.7,0.3,9.3,1.2,13.9,2.3c5,1.2,9.9,2.7,15,3.8&#10;&#9;c4.5,1,9.1,1.8,13.7,2.4c10.5,1.4,21.1,1.7,31.6,1.6c3.6,0,7.3,0,10.9-0.3c3.7-0.3,7.3-1,10.9-1.4c2.2-0.2,5.1-0.6,7.2,0.4&#10;&#9;c0.8,0.4,1.4,1.4,2.3,1.5c1.6,0.2,3.1-1.9,4.2-2.8c2.9-2.2,6.4-3.9,9.9-5.2c1.2-0.4,2.6-0.9,3.9-0.9c0.4,0,0.6,0.2,1,0.3&#10;&#9;c0.5,0.1,1,0,1.4-0.2c1-0.4,2-0.9,2.9-1.3c0.4-0.2,2.5-1.4,2.9-1.2c0.4,0.2-0.3,1-0.5,1.4c-0.6,0.9-1.2,1.8-1.9,2.7&#10;&#9;c-2.5,3.1-6.1,5.3-9.7,6.8c-6.8,2.9-14.3,4-21.5,5.3c-7.1,1.3-14.3,2.5-21.5,2.9c-7,0.3-14.1,0.5-21.2,0.2&#10;&#9;C93.8,591.6,92.9,591.6,91.9,591.5z M85.2,579.5c-3.1-0.3-6.2-0.6-9.3-1.2c-0.3-0.1-2.9-0.6-2.2-1.1c0.5-0.4,2.1-0.1,2.6-0.1&#10;&#9;c1.6,0,3.3,0.1,4.9,0.2c3.9,0.3,7.8,0.6,11.7,1.1c1.4,0.2,2.8,0.3,4.2,0.6c0.3,0.1,0.8,0.1,1.1,0.3c0.3,0.2,0.3,0.1,0.1,0.2&#10;&#9;c-0.4,0.3-1.7,0.1-2.1,0.2c-1.2,0-2.4,0.1-3.6,0.1C90.2,579.7,87.6,579.7,85.2,579.5C78.1,578.9,89.1,579.8,85.2,579.5z&#10;&#9; M118.4,579.4c-0.4-0.1-0.8-0.2-1.2-0.3c9.6-1.5,19.3-3,28.9-4.3c0.6-0.1,1.4-0.3,2-0.2c0.2,0,0.3-0.1,0.2,0.1&#10;&#9;c-0.2,0.3-1,0.4-1.3,0.5c-0.8,0.3-1.7,0.5-2.5,0.8c-4,1.2-8.1,2.3-12.2,2.9c-2.7,0.4-5.4,0.6-8.2,0.7&#10;&#9;C122.3,579.6,120.2,579.8,118.4,579.4z M56.3,574.1c-2-0.5-4.1-1.1-6-1.9c-0.7-0.3-2.3-0.8-2.6-1.6c-0.4-1.2,2.8-0.3,3.2-0.2&#10;&#9;c2.5,0.5,5.1,1.2,7.5,2c1.2,0.4,2.4,0.7,3.5,1.2c0.7,0.2,1.6,0.5,2.1,0.9c0.8,0.7-0.4,0.8-0.9,0.8C60.8,575.3,58.5,574.7,56.3,574.1&#10;&#9;C50.1,572.5,61.4,575.4,56.3,574.1z M176.8,573.7c-0.5-0.8-0.7-2.2-0.3-3.1c0.5-1,2-1,3-1.1c1-0.2,1.9-0.5,2.8-0.9&#10;&#9;c4.5-1.9,8.7-4.3,13-6.5c1.2-0.6,2.5-1.2,3.8-1.6c0.6-0.2,2-0.6,2.5-0.3c0.5,0.3,0.3,1.3,0.1,1.8c-0.4,1-1.3,1.8-2.1,2.4&#10;&#9;c-2.3,1.6-5.3,2.3-7.9,3.4c-2,0.8-3.9,1.7-5.7,2.8c-2.2,1.3-4.4,2.8-6.8,3.6C178.3,574.6,177.3,574.6,176.8,573.7z M-0.7,572.6&#10;&#9;c-0.5-1.2-0.4-2.8,0.1-3.9c0.4-0.9,2.1-1.8,2.6-0.4c0.4,1-0.4,2.5-0.8,3.4c-0.4,0.8-0.9,1.5-1.5,2.2C-0.3,573.5-0.5,573.1-0.7,572.6&#10;&#9;z M153.1,573.4c0-0.6,1.9-1.5,2.3-1.8c1.2-0.7,2.5-1.1,3.8-1.4c2.2-0.5,4.1-0.3,6.3,0.1c-2.1,1-4.3,1.9-6.5,2.5&#10;&#9;C158.3,572.9,153.5,574.4,153.1,573.4z M211.7,568.8c-1.9-1.2-1.4-2.9,0.3-3.9c1.7-1,3.6-1,5.4-0.5c0.7,0.2,1.6,0.3,2-0.4&#10;&#9;c0.3-0.5,0.2-1.1,0.3-1.6c0.3-0.9,0.9-1.7,1.5-2.5c1.9-2.6,4.1-5,6.4-7.2c2.2-2.1,4.4-4.3,7-5.9c1.1-0.7,2.1-1.2,3.3-0.4&#10;&#9;c0.4,0.3,1.8,1.8,2.4,1.6c0.7-0.2,1.1-2.2,1.3-2.7c0.4-1.3,1.2-3.8,2.9-3.9c0.9,0,1.4-0.3,2.2-0.9c2.8-2.2,5.2-5.2,7.3-8&#10;&#9;c1.1-1.5,2.2-3.1,3.2-4.8c0.5-0.9,0.9-1.9,1.2-2.9c0.3-1,0.1-2.1,0.6-3c0.9-1.6,2.9-1.2,4.3-2.1c1.6-1,2.8-2.7,3-4.6&#10;&#9;c0.2-2.2,2-2.3,3.8-2.4c1.8-0.1,3.2-1,4.5-2.2c0.9-0.8,1.7-1.7,2.6-2.6c0.4-0.4,1.6-1.9,2.2-1.9c0.6,0,0.1,0.8,0,1.2&#10;&#9;c-1.2,2.6-3.1,5-4.8,7.3c-10.2,13.8-21.9,26.7-34.6,38.3c-1.1,1-2.1,1.9-3.3,2.8c-1.3,1.1-2.9,2.5-4.5,3c-2,0.6-0.1-1.9-1.3-1.9&#10;&#9;c-0.8,0-1.9,1.3-2.4,1.7c-1.7,1.5-3.2,3-4.8,4.5c-1.7,1.7-3.5,3.3-5.5,4.7c-1.1,0.8-2.4,1.5-3.8,1.7&#10;&#9;C213.5,569.5,212.5,569.3,211.7,568.8z M176.3,566.5c0-0.4,0.9-1,1.2-1.2c1.3-0.9,2.6-1.7,3.9-2.5c4.3-2.5,8.7-4.9,13-7.4&#10;&#9;c9.3-5.3,18.2-11.2,27.5-16.6c0.2-0.1,2.5-1.6,2.6-1.4c0.2,0.2-1.5,1.5-1.7,1.6c-3.3,2.6-6.7,5.1-10.1,7.5&#10;&#9;c-7.3,5.1-14.9,9.8-22.7,14.1c-3.2,1.8-6.5,3.6-9.8,5C179.7,565.9,176.4,567.4,176.3,566.5z M-8.6,564.2c-1.1-1.2-1.6-2.7-2.8-3.9&#10;&#9;c-1.5-1.4-3.3-2.4-5.1-3.2c-3-1.5-7.2-3.5-6.8-7.5c0.3-2.8,5.3,1.6,6.1,2.2c3.2,2.6,6.4,5.3,9.3,8.3c0.9,1,2.5,2.4,2.7,3.9&#10;&#9;C-5,565.9-7.9,565-8.6,564.2z M5.6,561.3c-1.7-0.7-2.2-2.7-3.8-3.6c-1.3-0.8-3.1-0.3-4.1-1.5c-0.5-0.6-0.6-1.3-0.9-2&#10;&#9;c-0.3-0.6-0.8-0.6-1.5-0.7c-0.6-0.1-1.1-0.3-1.7-0.5c-4.2-1.7-8.1-4.6-11.7-7.2c-2-1.5-3.9-3-5.8-4.6c-1.2-1.1-2.6-2.3-3.4-3.7&#10;&#9;c-0.5-0.9-0.3-1.7,0.4-2.5c1.1-1.1,2.4-1.3,3.9-0.8c3.6,1.3,6.5,4.2,9.5,6.5c1.7,1.3,3.6,3,5.7,3.7c0.2,0.1,0.9,0.3,1,0&#10;&#9;c0.1-0.3-0.7-1-0.9-1.2c-4.9-5.4-10.6-9.9-15.7-15.1c-1-1-2-2-2.8-3.1c-0.2-0.2-0.9-0.9-0.5-1.1c0.4-0.2,1.9,1.2,2.2,1.4&#10;&#9;c1.4,1,2.7,2.2,4,3.3c3.3,2.8,6.5,5.8,9.6,8.9c2.1,2.2,4.4,4.4,6.1,7c0.5,0.7,0.8,1.5,1.3,2.1c0.8,1,1.8,2,2.8,2.8&#10;&#9;c2.8,2.5,6,4.5,9,6.7c1.5,1,2.9,2.1,4.4,3.1c0.3,0.2,2.4,1.5,2.2,2c-0.2,0.5-1.7,0.5-2.1,0.5c-1.4,0.1-2.9,0.1-4.4,0&#10;&#9;C7.5,561.7,6.4,561.7,5.6,561.3z M206.1,559.2c0.2-1.1-0.2-1.6-0.8-2.4c-0.5-0.6-0.5-1.1,0-1.7c0.6-0.9,1.6-1.6,2.5-2.3&#10;&#9;c2.6-2,5.4-3.9,8.3-5.4c1.3-0.7,2.6-1.3,4-1.6c0.6-0.1,1-0.1,1.5,0.2c0.6,0.3,1.8,1.1,1.7,1.8c0,0.7-1.1,0.8-1.6,0.9&#10;&#9;c-0.7,0.1-1.4,0.3-2,0.6c-1.8,0.7-3.4,1.8-4.8,3c-3.1,2.5-5.9,5.4-8.9,8.1C206,560,206,559.6,206.1,559.2z M-30.6,548.5&#10;&#9;c-1.1-0.5-0.8-1.8-1.4-2.7c-0.7-1.1-1.8-2.1-2.7-3c-3.3-3-7.1-5.3-10.7-8.1c-1.3-1-2.6-2.1-3.8-3.3c-0.5-0.5-1.4-1.3-1.4-2.1&#10;&#9;c-0.1-1.7,2.4-2.2,2.4-4c0-1.2-0.8-2.3-1.6-3.2c-1.7-2-4.3-4.1-7-4.4c-2.6-0.3-4.9-2.9-6.6-4.7c-2.9-3.2-5.5-6.8-7.6-10.7&#10;&#9;c-0.7-1.3-1.3-2.6-1.5-4c-0.2-1.2,0.2-2.8-0.7-3.7c-2.4-2.1-3.7-5.4-5.1-8.2c-2.7-5.5-5-11.1-7.3-16.7c-2.3-5.9-4.6-11.8-6.4-17.9&#10;&#9;c-0.9-3-1.8-6-2.1-9.1c-0.1-0.7-0.5-3.1,0.3-3.5c0.3-0.2,0.9,0.2,1.2,0c0.4-0.3,0.1-1.1,0-1.5c-0.8-3.1-2.5-5.9-3.6-8.8&#10;&#9;c-0.8-2.2-1.4-4.6-1.8-6.9c-1.2-7.1-1.4-14.4-1.7-21.6c-0.1-3.4-0.2-6.8-0.3-10.2c0-1.2,0-2.4,0-3.6c0-0.5-0.1-1.3,0.1-1.7&#10;&#9;c1.1-2.4,4.9,3.6,5.2,4.3c1.6,3.2,1.7,7,2,10.5c0.7,8.5,1.7,16.9,3.3,25.3c1.8,9.4,3.9,18.7,6.4,27.8c2.1,7.7,4.4,15.4,7.2,22.9&#10;&#9;c1.1,2.8,2.2,5.6,3.5,8.4c1.2,2.5,2.8,4.7,4.1,7.2c0.4,0.7,1.2,2.1,0.7,2.9c-0.2,0.4-0.6,0.5-0.9,0.7c-0.6,0.4-0.9,1.1-0.8,1.8&#10;&#9;c0.1,1.8,1.8,2.4,3.3,2.8c1.4,0.4,2.4,1.8,3.4,2.8c4.1,4.4,7.1,9.9,10.7,14.8c2,2.6,4.4,4.9,6.4,7.5c0.9,1.2,1.5,2.5,1.6,4&#10;&#9;c0,0.8,0,1.7-0.1,2.5c-0.1,0.6-0.3,1.5-0.1,2.1c0.3,1,2,1.1,2.9,1.2c1.3,0.1,2.5,0.5,3.6,1.2c3.5,2,6.4,5.2,8.7,8.5&#10;&#9;c0.6,0.9,2,2.6,1.7,3.8C-27.4,548.9-29.7,548.9-30.6,548.5z M-90.7,431.1c0.4-0.9,0.1-2.1-0.8-2.7c-0.6-0.4-2.1-0.5-2.4,0.4&#10;&#9;c-0.3,0.9,0.9,2.2,1.5,2.7C-91.5,432.2-91.1,432-90.7,431.1z M227.9,543.5c-1.5-1.6-0.7-3,0.6-4.4c0.7-0.7,2-1.9,2.6-0.5&#10;&#9;C231.9,540.6,230.7,546.5,227.9,543.5z M-30.6,532.3c-2-0.9-3.7-2.6-5.3-4.2c-2.1-2-4-4.3-5.7-6.6c-0.7-1-1.4-2-2-3.1&#10;&#9;c-0.5-1-0.9-2-1.3-3c-0.4-1-1.1-1.6-2.1-1.9c-1.4-0.5-2.4-0.5-3.4-1.7c-2.1-2.5-2-5.8-3.4-8.6c-1.4-2.8-3.7-5-5.6-7.4&#10;&#9;c-3.9-4.9-6.8-10.6-9.5-16.2c-3.1-6.4-6-13-7.9-20c-2-7.1-2.6-14.6-4.9-21.6c-1.8-5.4-3.9-10.9-3.3-16.7c0.1-0.8,0.3-1.1,1-1.4&#10;&#9;c0.4-0.2,1.1-0.3,1.3-0.8c0.2-0.6-0.6-1.3-0.9-1.7c-1.6-2-2-4.8-2.3-7.3c-0.4-3.7-0.4-7.6,0-11.3c0.2-1.8,0.5-3.5,2.2-4.4&#10;&#9;c0.5-0.3,1-0.5,1.2-1.2c0.1-0.4,0.2-1.3-0.1-1.7c-0.4-0.4-1.2,0-1.7-0.3c-1.1-0.5-1.1-2.5-1.2-3.6c-0.3-3.3-0.2-6.6-0.1-9.9&#10;&#9;c0-1.5-0.2-3.9,0.9-5.1c0.3-0.4,0.8-0.6,1.3-0.7c0.6-0.2,2.5-0.1,2.8-0.7c0.2-0.5-1.1-1.1-1.3-1.5c-0.5-0.8-0.7-1.7-0.8-2.6&#10;&#9;c-0.5-2.8-0.3-5.7,0.1-8.5c0.4-2.9,1.3-5.6,2.1-8.4c1.1-3.4,1.7-7,2.6-10.5c0.9-3.2,2.2-6.3,3.5-9.3c0.7-1.6,1.3-3.2,1.8-4.8&#10;&#9;c0.4-1.3,0.6-2.7,0.9-4c0.9-3.3,2.4-6.5,4-9.5c2.9-5.4,6.1-10.6,9.5-15.7c6.6-10,13.5-20,21.8-28.6c7.2-7.5,14.7-14.9,22.7-21.5&#10;&#9;c1.7-1.4,3.7-3.3,5.9-3.6c1.3-0.1,2.9,0.7,2.8,2.1c0,1.7-1.7,3.3-2.8,4.5c-2.5,2.6-5.3,4.8-8,7.2C-27.5,266.8-38,278.7-47,291.3&#10;&#9;c-3.7,5.3-7,10.8-10.1,16.5c-1.7,3.1-3.4,6.1-5.2,9.1c-0.8,1.4-1.6,2.9-2.8,4c-0.7,0.7-1.3,0.6-2.1,0.9c-0.6,0.2-2.5,0.9-2.7,1.5&#10;&#9;c-0.1,0.5,2.4-0.6,2.9-0.7c2.1-0.2,0.3,4.2,0,5.1c-1.1,3.2-2.4,6.4-3.6,9.6c-4.4,11.5-6.2,23.6-7.5,35.8c-1.1,10.9-1.1,22-1,33&#10;&#9;c0.1,11.6,0.8,23.1,3.3,34.5c3,13.6,8.7,26.7,15.3,38.8c1.3,2.3,2.6,4.6,4.1,6.8c0.9,1.3,1.8,2.9,3.6,2.8c0.2,0,1.2-0.4,1.4-0.1&#10;&#9;c0.1,0.2-0.5,1.1-0.5,1.4c-0.3,1.4-0.1,3,0.2,4.4c0.7,3.6,2.4,6.9,3.2,10.4c0.3,1.4,0.5,3,1.4,4.3c0.5,0.7,1,0.8,1.7,1&#10;&#9;c1.4,0.4,2.7,1.8,3.8,2.7c4,3.3,7.9,7,11.4,11c1.5,1.7,3.6,3.8,3.9,6c0.1,1-0.3,2.1-1.1,2.7C-28.3,533.4-29.7,532.7-30.6,532.3z&#10;&#9; M231.4,528.7c2.1-2.8,4.7-5.2,7.1-7.8c3.2-3.3,6.3-6.6,9.6-9.9c1-1,2-2.1,3.2-2.9c0.6-0.4,2.1-1.2,1.4,0.2&#10;&#9;c-0.3,0.6-0.7,1.1-1.2,1.6c-3.4,3.9-7.2,7.6-10.9,11.2c-2.3,2.3-4.7,4.5-7.2,6.7c-0.5,0.5-1.1,0.9-1.6,1.3c-0.1,0.1-0.7,0.6-0.9,0.6&#10;&#9;C230.6,529.7,231.3,528.9,231.4,528.7z M248.4,522.1c-2-2-0.4-4.1,1.2-5.8c1.7-1.9,3.3-3.9,4.7-6.1c1.8-2.7,3.3-5.5,5.1-8.1&#10;&#9;c1.1-1.5,2.3-3.3,3.9-4.2c2.9-1.7,4.2,2.7,3.5,4.8c-0.9,2.5-2.6,5-4.1,7.2c-1.5,2.3-3.2,4.5-4.9,6.6c-1.6,1.9-3.3,3.9-5.2,5.5&#10;&#9;c-0.5,0.5-1.1,1-1.8,1.2C249.8,523.6,249,522.7,248.4,522.1z M-30.9,518.1c-3.8-2.8-7-6.7-9.9-10.3c-3-3.8-6-7.8-8.1-12.2&#10;&#9;c-0.1-0.2-0.9-1.7-0.7-1.8c0.3-0.2,1.6,1.6,1.8,1.8c3.8,4.5,7.3,9.2,11,13.7c1.9,2.3,3.8,4.5,5.8,6.6c0.6,0.6,1.2,1.2,1.7,1.9&#10;&#9;c0.2,0.2,0.9,0.8,1,1.2C-28.1,520-30.7,518.3-30.9,518.1z M270.5,508.3c2-3.4,4.3-6.6,6.2-10.1c1-1.8,1.9-3.7,2.9-5.5&#10;&#9;c0.1,1.6,0.3,3-0.3,4.5c-0.8,2-2.2,3.9-3.6,5.6c-1.2,1.6-2.5,3.1-3.9,4.5c-0.3,0.3-0.8,1.1-1.2,1.2&#10;&#9;C270.3,508.7,270.3,508.6,270.5,508.3z M256.9,498.4c3.4-5.4,6.5-11.1,9.5-16.7c3.1-5.8,6.1-11.7,9.6-17.2c0.1-0.2,1.3-2.3,1.6-2.1&#10;&#9;c0.5,0.2-1.4,4-1.5,4.3c-3.1,6.8-6.7,13.5-10.5,19.9c-1.6,2.8-3.3,5.5-5.2,8.1c-0.8,1.1-1.6,2.1-2.4,3.1c-0.4,0.5-0.8,0.9-1.2,1.4&#10;&#9;c-0.1,0.1-0.8,1.1-1,1C255.8,500.3,256.8,498.5,256.9,498.4z M-27.2,499.5c-0.6-0.6-0.8-1.8-1-2.5c-0.4-1.4-0.7-2.8-1.1-4.1&#10;&#9;c-0.5-2-1-3.9-1.5-5.9c-1.1-4.2-2.1-8.4-2.9-12.7c-0.8-4.1-1.9-8.2-2.9-12.2c-0.5-2-1.1-4.1-1.7-6.1c-0.5-1.7-1.2-4.2,0.8-5.2&#10;&#9;c1.1-0.6,2.6-0.7,3.7-0.9c1.8-0.4,3.7-0.9,5.5-1.3c3.8-0.9,7.6-1.8,11.5-2.7c1.9-0.5,3.9-1,5.9-1.2c1.1-0.1,2.6-0.1,2.9,1.2&#10;&#9;c0.2,0.8,0.2,1.7,0.4,2.5c0.3,1.4,0.7,2.8,1,4.2c0.2,1.1,0.6,2.6-0.6,3.3c-0.6,0.4-1.4,0.5-2,0.6c-1.1,0.3-2.1,0.6-3.2,1&#10;&#9;c-2.3,0.8-4.9,0.9-7.2,1.7c-1.3,0.4-2.2,1-2.1,2.5c0.1,1.1,0.3,2.1,0.7,3.1c0.2,0.5,0.4,1.3,0.9,1.6c0.4,0.3,1,0.2,1.5,0.1&#10;&#9;c1.6-0.2,3.2-0.7,4.7-1.1c2.3-0.6,4.6-1.3,6.9-1.8c0.8-0.1,1.4-0.2,1.9,0.5c1,1.2,1.3,3.2,1.7,4.7c0.4,1.4,1.1,3.6,0.6,5&#10;&#9;c-0.3,0.8-1.2,1.1-1.9,1.4c-1,0.4-2,0.6-3.1,0.7c-1.1,0.1-2,0.6-3.1,0.8c-1.2,0.3-2.5,0.4-3.7,0.6c-1.3,0.3-2.6,0.9-2.8,2.4&#10;&#9;c-0.1,1.4,0.3,3.8,1.4,4.8c1.2,1.2,3.9-0.2,5.3-0.6c2.2-0.6,4.5-1.1,6.7-1.8c0.6-0.2,1.1-0.3,1.7-0.5c0.4-0.1,1.2-0.5,1.6-0.4&#10;&#9;c0.4,0.1,0.9,0.8,1.2,1.1c0.8,0.9,1,1.8,1.2,2.9c0.3,1.4,0.6,2.7,1,4c0.2,0.7,0.5,1.5,0.3,2.2c-0.3,1.7-2.3,2.2-3.7,2.5&#10;&#9;c-6.9,1.4-13.6,3.7-20.4,5.3c-1.3,0.3-2.5,0.6-3.8,0.7C-25.7,500.1-26.5,500.2-27.2,499.5z M-16.9,490.3c1.1-1.3-0.9-1-1.4-0.1&#10;&#9;C-19,491.3-17.3,490.8-16.9,490.3z M-13.2,489.7c0.2-0.1,0.6-0.4,0.3-0.6c-0.2-0.2-0.9,0.4-1.1,0.5&#10;&#9;C-14.8,490.3-13.7,489.9-13.2,489.7z M-22.3,487.8c-0.3-0.3-1.7,0-1.2,0.5C-23.1,488.7-21.6,488.4-22.3,487.8z M-19.9,486.5&#10;&#9;c-0.3-0.5-1.9-0.1-1.7,0.3C-21.5,487.1-19.9,486.9-19.9,486.5z M-16.7,485.6c0.7-1.2-2.4-0.5-2.6,0C-19.5,486.2-17.1,486-16.7,485.6&#10;&#9;z M-22.1,484.5c0.4-0.2,1.9-1.3,0.7-1.3c-0.7,0-1.6,0.5-2.1,0.8c-0.3,0.2-1.2,0.5-1,1C-24.2,485.7-22.5,484.7-22.1,484.5z&#10;&#9; M-19.9,480.3c0.4-0.4,0.8-0.9,1.2-1.3c-0.8,0.5-1.9,1.1-2.4,1.8c-0.1,0.2-0.4,0.6-0.1,0.7C-21,481.6-20,480.4-19.9,480.3z&#10;&#9; M-21.9,478.8c-0.3-0.3-1.7,0.3-1.5,0.8C-23.1,480.1-21.9,479.3-21.9,478.8z M-21.8,474.7c0-0.4-0.7-0.6-0.6-0.1&#10;&#9;C-22.4,474.9-21.8,475.4-21.8,474.7z M-23,473.6c0.1-0.1,0.8-0.8,0.5-1c-0.3-0.2-1.2,0.7-1.4,0.9c-0.1,0.1-1.2,0.9-0.9,1.1&#10;&#9;C-24.2,474.9-23.2,473.9-23,473.6C-21.8,472.3-23.5,474.2-23,473.6z M-24,471.4c-0.3-0.6-1.2,0.1-0.7,0.6&#10;&#9;C-24.3,472.3-23.8,471.8-24,471.4z M-19.7,469.8c0-0.7-2.5,0.4-1.7,1C-20.9,471-19.8,470.3-19.7,469.8z M-23.1,469.1&#10;&#9;c-0.4-0.4-1.2,0.2-0.9,0.7C-23.6,470.4-22.9,469.6-23.1,469.1z M-25,467.8c0-0.5-0.8-0.5-0.8,0C-25.8,468.3-25,468.3-25,467.8z&#10;&#9; M-26.5,460.2c-0.1,0-1.4-0.2-1.4,0.1C-27.9,460.4-26.2,460.5-26.5,460.2z M-20.7,456.8c0.3-0.4-0.4-0.5-0.6-0.1&#10;&#9;C-21.5,457.3-21,457.2-20.7,456.8z M-30.5,456c-0.2-0.3-1-0.7-0.8,0C-31.1,456.4-30.1,456.6-30.5,456z M-27.8,456&#10;&#9;c0-0.4-1.1-0.6-1.2-0.3C-29,455.8-27.8,456.9-27.8,456z M-23.4,456.2c0-0.3-0.7-0.7-0.8-0.3C-24.4,456.4-23.4,456.5-23.4,456.2z&#10;&#9; M271,492c-1.1-0.9-1-1.8-0.9-3.1c0.2-1.5,0.5-3,1-4.4c1.2-3.7,3-7.3,5-10.6c1.6-2.5,3.5-4.9,4.5-7.7c1-2.8,1.4-5.8,2-8.6&#10;&#9;c2.5-11.7,5.1-23.4,8-35c0.4-1.5,0.7-3.1,1.2-4.5c0.3-0.8,0.5-1.6,1.4-1.7c1-0.1,2.2,0.1,3.2,0.2c0-1.1,0.1-2.2-0.1-3.3&#10;&#9;c-0.2-1.4-1.1-2.3-1.6-3.6c-1.1-2.8-1.6-5.9-2-8.9c-1.3-9.1-1.7-18.5-1.3-27.6c0-0.7-0.2-4,0.9-4.2c1.4-0.2,1.3,3.2,1.3,3.9&#10;&#9;c-0.1,1.3-1,3.5,0,4.7c0.9,1,2.5,0.7,2,2.5c-0.3,0.9-0.7,1.4-0.3,2.4c0.3,0.8,0.7,1.4,1.4,1.9c0.9,0.8,1.2,2.4,1.4,3.5&#10;&#9;c0.3,1.6,0.6,3.1,0.7,4.7c0.4,5.7,0.3,11.5,0,17.3c-0.1,2-0.1,4.1-0.5,6c-0.5,2.1-2.1,3.7-2.4,5.8c-0.4,3.3-0.1,6.7-0.4,10&#10;&#9;c-0.3,3.3-0.9,6.6-1.8,9.9c-1.2,4.4-2.5,8.8-4.2,13.1c-0.9,2.4-1.9,5.1-3.8,7c-0.2,0.2-1.4,1.1-1.2,1.6c0.3,0.5,1.6,0.2,2,0.4&#10;&#9;c0.6,0.2,0.6,0.4,0.4,0.9c-0.3,0.9-0.6,1.7-1,2.5c-1.7,3.7-3.4,7.3-4.8,11.1c-1.4,3.8-2.5,7.7-4.3,11.3c-0.7,1.5-2,3.9-4,3.7&#10;&#9;C272.3,492.9,271.6,492.5,271,492z M10.4,490.4c-0.7-0.9-1-2.3-1.3-3.4c-0.4-1.5-0.6-2.9-1-4.4c-0.3-1.3-0.7-2.5-1-3.8&#10;&#9;c-0.4-1.5-0.6-3.2-1.2-4.6c-0.8-1.8-1.1-3.8-1.6-5.7c-0.6-2.6-1.2-5.2-1.7-7.8c-1-4.4-2-8.8-3.1-13.2c-0.3-1.1-0.9-2.6-0.7-3.8&#10;&#9;c0.3-1.6,2.1-2.3,3.5-2.7c1.4-0.5,2.9-0.8,4.3-1.1c1.4-0.3,2.8-0.7,4.2-1c2-0.4,3.9,1.6,5.2,2.8c4.5,4,9,7.8,13.4,11.8&#10;&#9;c2.3,2.1,4.8,4.2,7.1,6.4c0.5,0.5,2.2,2.1,2.9,1.3c0.3-0.4,0.1-1.1,0-1.6c-0.4-2-0.9-4.1-1.5-6.1c-0.5-1.8-1.1-3.4-1.6-5.2&#10;&#9;c-0.7-2.8-1.6-5.5-2.3-8.3c-0.3-1.3-0.6-2.6-0.8-3.9c-0.1-0.7-0.3-1.5,0.1-2.2c0.6-0.9,1.9-1.3,2.9-1.5c1.4-0.4,2.9-0.7,4.3-1&#10;&#9;c2-0.4,5-1.8,6.5,0.3c0.3,0.5,0.3,1,0.4,1.6c0.2,0.8,0.4,1.5,0.6,2.2c0.4,1.4,0.8,2.9,1.1,4.3c0.6,2.7,1.3,5.4,1.9,8&#10;&#9;c1.4,5.6,2.9,11.3,4.2,16.9c0.4,1.9,0.8,3.7,1.2,5.6c0.5,2.3,1.3,4.7,1.3,7.1c0,1.8-1.6,2.4-3.1,2.7c-3,0.5-6.1,2-9.1,1.7&#10;&#9;c-1.8-0.2-3.3-1.8-4.6-2.9c-2.2-1.8-4.3-3.7-6.4-5.6c-2.2-2-4.5-3.9-6.8-5.8c-2.2-1.8-4.4-3.8-6.7-5.6c-0.5-0.4-1.3-0.8-1.5-1.4&#10;&#9;c-0.2-0.5,0.3-1.1-0.4-1.3c-0.5-0.2-1.4-0.2-2-0.3c-0.7-0.1-0.5,0.3-0.9,0.8c-0.4,0.7-1.2,1.2-1.8,1.6c-0.2,0.2-1.3,0.9-1.2,1.3&#10;&#9;c0.1,0.6,1.4-0.5,1.6-0.6c0.4-0.3,0.9-0.6,1.3-1c0.3-0.3,0.6-0.8,1-0.9c1.1-0.4,0.8,0.8,0.8,1.4c0.2,2.5,1,5,1.7,7.4&#10;&#9;c0.4,1.4,0.9,2.7,1.2,4.1c0.3,1.5,0.5,3,0.8,4.5c0.6,2.7,1.5,5.3,1.9,8c0.2,1.4-0.2,1.9-1.5,2.5c-2.7,1.3-5.8,1.8-8.7,2.5&#10;&#9;C12.4,490.7,11,491.2,10.4,490.4z M14,477.5c0,0,0.4-0.2,0.4-0.3c-0.1-0.3-1.4,0.1-1.4,0.4C12.7,478.2,13.7,477.6,14,477.5z&#10;&#9; M46.3,470.3c0.4-1.1-3.9-0.3-3,0.6C43.7,471.3,46.1,470.9,46.3,470.3z M38.9,469.4c0.3-0.4-0.7-0.6-0.9-0.2c0,0.1,0.2,0.5,0.3,0.5&#10;&#9;C38.6,469.8,38.8,469.6,38.9,469.4z M42.4,469.1c0-0.9-1-0.1-1.1,0.3C41.1,470,42.4,469.8,42.4,469.1z M44.8,469&#10;&#9;c0-0.4-0.7-0.6-0.6-0.1C44.2,469.2,44.8,469.7,44.8,469z M44.3,467.1c0.3-0.2-0.8-1-0.6-1.3c0.2-0.3,1.9-0.3,2.2-0.3&#10;&#9;c0.2-0.1,1.3-0.2,1.4-0.5c0.1-0.4-1.2-0.1-1.5-0.1c-0.3,0-1-0.2-0.9-0.6c0.1-0.5,1.3-0.4,1-1.1c-0.3-0.6-1.2,0-1.3,0.3&#10;&#9;c-0.2,0.3-0.1,0.6-0.5,0.9c-0.4,0.2-1.1,0.1-1.5,0.1c-0.8,0-1.6-0.1-2.4-0.1c-0.3,0-1.2,0.1-0.7,0.5c0.4,0.3,1.5,0.2,2,0.3&#10;&#9;c0.5,0.2,1.3,0.5,1.3,1.1c0,0.4-1.2,1-1,1.5C42,468.3,44,467.3,44.3,467.1z M39.9,466.9c0-0.5-1.8-0.6-1.8-0.1&#10;&#9;C38.1,467.5,39.8,467.5,39.9,466.9z M49.9,466.5c0.4-0.6-1.4-0.3-1.6,0.1C48,467.2,49.6,466.9,49.9,466.5z M16.6,463.7&#10;&#9;c0.3-0.5-0.8-0.5-1-0.2C15.3,464.2,16.3,464.2,16.6,463.7z M40.5,463.3c0.3-0.4-0.4-0.5-0.6-0.1C39.7,463.8,40.3,463.7,40.5,463.3z&#10;&#9; M43.6,462.7c0-0.8-1-0.2-0.8,0.3C43,463.6,43.6,463.1,43.6,462.7z M12.3,461.3c0-0.5-0.8-0.5-0.8,0&#10;&#9;C11.5,461.8,12.3,461.8,12.3,461.3z M42.4,461.3c0-0.7-1.6-0.4-1.5,0.2C41,461.9,42.2,461.6,42.4,461.3z M10.5,460&#10;&#9;c0.4-0.7-1.7-1.1-2-0.4C8.1,460.5,10.1,460.7,10.5,460z M14,459.6c0-0.5-0.8-0.5-0.8,0C13.1,460.2,14,460.2,14,459.6z M15.5,457.5&#10;&#9;c0.4-0.5,0-1,0.2-1.5c0.2-0.5,1.3-0.5,1.7-0.6c0.3-0.1,1.4-0.2,1.3-0.7c-0.1-0.3-0.9-0.3-1.1-0.3c-0.5,0-1.1,0.1-1.6,0.4&#10;&#9;c-0.5,0.3-1.1,1-1.7,0.8c-0.8-0.3-0.2-1.1,0.1-1.5c0.3-0.4,0.3-0.6-0.3-0.4c-0.5,0.1-3.2,1.5-2.4,2.2c0.3,0.3,1.6-0.1,1.6,0.4&#10;&#9;c0.1,0.6-1.5,0.5-1.8,0.5c-0.4,0.1-1.1,0.2-0.8,0.7c0.2,0.4,1.2,0.4,1.6,0.4C13.2,458,15,458.2,15.5,457.5z M18.6,457.2&#10;&#9;c0,0,0.6-0.2,0.5-0.3c-0.2-0.3-1.9-0.1-1.9,0.4C17.2,457.9,18.4,457.3,18.6,457.2z M10.5,454.2c0.4-0.2,1.8-0.9,0.8-1&#10;&#9;c-0.7-0.1-1.6,0.3-2.2,0.6c-0.3,0.1-1.3,0.4-1.3,0.8C8,455.3,10.3,454.3,10.5,454.2z M15.6,451.9c0-0.3-2.6,0-2.8,0.3&#10;&#9;C12.4,452.9,15.6,453.1,15.6,451.9z M7.1,451.9c0-0.6-0.9,0.1-0.8,0.5C6.4,453,7.1,452.2,7.1,451.9z M12.8,450.8&#10;&#9;c0.4-0.3,1.2-1.1,1.2-1.6c-0.1-0.7-0.7,0.1-1,0.3c-0.5,0.4-1,0.4-1.6,0.6c-0.8,0.3-1.6,0.7-2.4,1.1c-0.4,0.2-1.3,0.4-0.8,0.9&#10;&#9;c0.3,0.2,0.9,0.1,1.2,0.1C10.6,452,11.9,451.5,12.8,450.8z M19.6,451.5c0-0.6-1.2-0.6-1.2,0S19.6,452.1,19.6,451.5z M42.4,445.8&#10;&#9;c0-0.5-0.8-0.5-0.8,0C41.5,446.4,42.4,446.4,42.4,445.8z M282.2,486.8c0-0.4,0.5-1.2,0.6-1.6c0.5-1.2,1-2.4,1.6-3.6&#10;&#9;c1.2-2.8,2.5-5.6,3.9-8.4c2.1-4.1,4.7-7.7,7.8-11.1c0.5-0.6,2.2-1.9,1.3-2.7c-0.3-0.3-0.9-0.4-1.2-0.7c-0.2-0.2-0.2-0.6-0.3-0.9&#10;&#9;c-0.2-1.3-0.1-2.8,0-4.1c0.3-2.7,1.3-5.3,3.1-7.4c0.7-0.9,1.4-1.7,1.8-2.8c1.3-3.6,1.2-7.8,1.4-11.5c0.1-2.8,0.2-5.7,0.3-8.5&#10;&#9;c0.2-7.9,0.2-15.9,0.2-23.8c0-7.3,0-14.5-0.2-21.8c-0.2-7.1-1.1-14.2-2.5-21.2c-2.4-11.5-6.6-22.6-11.1-33.5&#10;&#9;c-4-9.7-8.6-19.2-14.1-28.3c-5.6-9.3-12-18-18.7-26.5c-5.8-7.4-12.8-13.5-19.7-19.8c-2.7-2.5-5.6-4.9-7.9-7.7c-0.6-0.8-1.6-2-0.8-3&#10;&#9;c0.7-1,2.3-0.8,3.3-0.6c2.1,0.4,4,1.3,5.8,2.3c2.1,1.2,4.1,2.6,5.9,4.2c0.9,0.8,1.8,1.7,2.5,2.7c0.5,0.7,0.5,1.3,0.4,2.1&#10;&#9;c-0.1,0.9,0,1.6,0.9,1.9c0.6,0.2,1.2,0.3,1.7,0.6c1.3,0.7,2.5,1.7,3.6,2.6c4,3.5,7.6,7.4,11.1,11.4c6.5,7.3,12.3,15.1,17.3,23.5&#10;&#9;c6.2,10.4,11.6,21.3,16.2,32.4c4.3,10.5,7.5,21.4,9.5,32.5c0.8,4.5,1.6,9.2,1.5,13.8c0,1.1-0.1,2.3-0.6,3.3&#10;&#9;c-0.5,0.9-3.1,4.6-0.3,4.4c0.9-0.1,1.2,0.2,1.4,1.1c0.5,1.9,0.3,4.2,0.3,6.1c0,2.1-0.2,4.3,0.1,6.4c0.1,1.1,0.7,1.9,1.2,2.9&#10;&#9;c0.9,1.7,1,3.5,1.1,5.3c0.1,1.8,0.1,3.5,0.1,5.3c-0.1,4.2-0.5,8.5-0.9,12.7c-0.9,8.4-2.1,17-4.4,25.2c-0.3,1.2-0.7,2.4-1.2,3.6&#10;&#9;c-0.3,0.8-0.7,1.9-1.5,2.4c-0.5,0.3-1.1,0.4-1.7,0.6c0.8,0.8,1.8,1.6,2.3,2.6c0.7,1.4,0.4,3.6,0.2,5c-0.6,4.8-2.6,9.5-5,13.6&#10;&#9;c-3.1,5.6-7.6,10.2-12,14.9c-1,1-1.9,2-3,3C283.1,486.2,282.6,486.8,282.2,486.8z M-55.1,483.6c-2.7-4.6-4.9-9.4-7.1-14.2&#10;&#9;c-2.3-5.1-4.6-10.3-6.5-15.5c-0.6-1.7-1.3-3.5-1.7-5.3c-0.1-0.4-0.6-2.1-0.2-2.2c0.5-0.1,1.4,2.5,1.6,2.8c2.9,6.7,5.5,13.4,8.6,20&#10;&#9;c1.6,3.3,3.3,6.6,4.7,10c0.7,1.6,1.5,3.3,1.8,5C-53.7,485.8-54.8,484-55.1,483.6C-60.3,474.6-53.5,486.4-55.1,483.6z M82.4,471.7&#10;&#9;c-0.6-1.2-0.8-2.6-1.2-3.8c-0.6-2.4-1.2-4.7-1.8-7.1c-0.6-2.4-1.2-4.8-1.7-7.2c-0.4-1.7-0.5-3.7-1-5.4c-0.2-0.5-0.5-0.9-0.6-1.4&#10;&#9;c-0.1-0.4,0-0.8-0.1-1.2c-0.1-0.3-0.3-0.6-0.4-1c-0.2-0.7-0.2-1.5-0.3-2.2c-0.2-0.9-0.4-1.9-0.6-2.8c-0.4-1.6-0.8-3.2-1.2-4.9&#10;&#9;c-0.4-1.7-1.1-3.3-1.6-4.9c-0.4-1.4-1.2-3.6-0.1-5c1.1-1.3,3.3-1.7,4.8-2.1c3.7-1,7.5-1.7,11.3-2.6c3.2-0.8,6.3-1.6,9.6-1.4&#10;&#9;c3.2,0.2,6.1,1,8.5,3c1,0.9,2.1,1.9,3,2.9c0.2,0.3,0.3,0.5,0.5,0.9c0.4,0.9,1,1.6,1.5,2.4c0.4,0.6,0.7,1.3,0.8,2&#10;&#9;c0.1,0.6,0.3,1.1,0.6,1.7c0.6,1.3,0.4,3.3,0.4,4.6c0,2.9,0,6-1.5,8.6c-1.4,2.4-3.7,4.6-6.2,5.8c-3.2,1.5-6.6,2-10,2.8&#10;&#9;c-1.3,0.3-1.8,0.5-1.8,1.9c0,1.6,0.4,3.3,0.8,4.8c0.5,1.8,1.1,3.7,1.4,5.5c0.2,1,0.4,2.2,0.3,3.2c-0.3,1.8-2.1,1.9-3.6,2.2&#10;&#9;c-2.4,0.6-4.9,1.2-7.4,1.6C83.6,473.1,82.9,472.8,82.4,471.7z M88,459.2c0.4-0.6-0.7-0.4-0.8,0C87,459.9,87.8,459.6,88,459.2z&#10;&#9; M87.8,456.3c0-0.5-2.2-0.1-1.3,0.6C86.9,457.2,87.7,456.8,87.8,456.3z M87.1,452.1c0.5-1.2-2.1-0.3-2.2,0.2&#10;&#9;C84.9,453.1,86.9,452.7,87.1,452.1z M90.2,451.2c0-0.5-2.3-1.4-2.3-0.8C87.9,451,90.3,451.8,90.2,451.2z M86.2,449.7&#10;&#9;c1.1-1.3-0.8-0.8-1.4-0.2C83.9,450.5,85.7,450.3,86.2,449.7z M91.7,448.7c0.3-0.4-1.3-0.6-1.4-0.1C90.1,449.3,91.4,449.1,91.7,448.7&#10;&#9;z M88.4,447.9c0.4-0.6-0.7-0.4-0.8,0C87.4,448.5,88.2,448.2,88.4,447.9z M95.1,447.3c0-0.3-0.7-0.7-0.8-0.3&#10;&#9;C94.1,447.5,95.1,447.6,95.1,447.3z M85.2,445c0.4-0.6-1.4-0.3-1.6,0.1C83.3,445.7,84.9,445.4,85.2,445z M102.6,444.2&#10;&#9;c0.3-0.4-0.4-0.5-0.6-0.1C101.8,444.7,102.4,444.6,102.6,444.2z M96.8,442.5c-0.5-0.5-1.5,0.1-1,0.4C96,443.2,97.4,443.1,96.8,442.5&#10;&#9;z M81.1,441.8c0.3-0.5-1.1-0.5-1.2,0C79.7,442.5,80.9,442.2,81.1,441.8z M94.6,441c1-0.5,2.1-1.2,2.6-2.2c0.6-1,0.6-2.4,0.5-3.6&#10;&#9;c-0.2-2.2-2.1-3.6-4.1-3.8c-1.9-0.2-5.2-0.7-6.1,1.5c-0.4,1-0.3,2,0.1,3c0.6,1.3,0.5,2.9,1,4.2C89.6,443,92.6,442.1,94.6,441z&#10;&#9; M86.8,440.6c0.2-0.4-1.6-0.7-1.8-0.1C84.7,441.2,86.5,440.9,86.8,440.6z M104.7,437.9c-0.2-0.2-1,0.1-1,0.1&#10;&#9;C104,438.3,104.7,438.1,104.7,437.9z M84.2,435.7c-0.2-0.1-1.2-0.7-1.1-0.1c0.1,0.3,1.4,0.7,1.4,0.4&#10;&#9;C84.6,435.9,84.2,435.7,84.2,435.7z M82.5,435.5c0-0.4-0.8-0.6-1-0.2C81.3,435.9,82.5,435.7,82.5,435.5z M106.7,434.5&#10;&#9;c0.3-0.4-1.1-0.6-1.2-0.2C105.2,434.9,106.4,434.9,106.7,434.5z M104.8,431.4c0-0.3-2.5-0.2-1.7,0.3&#10;&#9;C103.5,432,104.7,431.8,104.8,431.4z M86.1,431.4c-0.2-0.2-1,0.1-1,0.1C85.4,431.8,86,431.7,86.1,431.4z M83.7,430.5&#10;&#9;c0.2-0.7-1-0.2-1.1,0.4C82.5,431.7,83.5,430.9,83.7,430.5z M103.8,428.8c0.4-0.6-0.7-0.4-0.8,0C102.8,429.5,103.6,429.1,103.8,428.8&#10;&#9;z M118,464.4c-0.6-0.5-0.7-1.5-0.7-2.2c-0.1-1.9,0.2-3.8,0.4-5.6c0.2-1.8,0.5-3.7,0.7-5.5c0.4-3.8,0.7-7.5,1.1-11.3&#10;&#9;c0.4-3.9,0.9-7.8,1.2-11.7c0.2-2.1,0.3-4.3,0.5-6.4c0.2-1.8,0.5-3.6,0.6-5.4c0.1-2.3,0.2-4.6,2.6-5.5c1.5-0.6,3.1-0.8,4.6-1&#10;&#9;c2-0.4,3.9-0.8,5.8-1.4c1.3-0.4,3.3-1.1,4.6-0.4c0.8,0.4,1.4,1.4,1.9,2.2c0.8,1.1,1.6,2.3,2.3,3.4c0.5,0.8,0.8,1.8,1.4,2.6&#10;&#9;c0.6,0.8,1.2,1.6,1.8,2.5c0.6,0.9,1,1.9,1.6,2.8c0.5,0.7,1,1.4,1.5,2.1c1.2,1.9,2.3,3.8,3.5,5.7c1,1.5,2,2.9,2.9,4.4&#10;&#9;c0.8,1.5,2,2.8,2.8,4.3c0.4,0.8,1,1.5,1.5,2.2c0.6,0.9,1.2,1.8,1.8,2.7c1.1,1.7,2.2,3.3,3.3,5c0.6,0.9,1.9,2.3,1.7,3.5&#10;&#9;c-0.2,1-0.9,1.9-1.8,2.2c-1.9,0.6-3.9,0.8-5.8,1.4c-1.7,0.5-3.5,0.8-5.2,0.6c-1-0.1-1.2-0.4-1.5-1.3c-0.3-0.9-1-1.6-1.5-2.4&#10;&#9;c-0.5-1-1-3.1-2.3-3.4c-1.1-0.3-2.8,0.3-3.9,0.6c-1.6,0.3-3.2,0.7-4.8,1.1c-1.3,0.4-2.6,0.9-3.9,1.2c-1.3,0.3-4,0.4-4.5,1.9&#10;&#9;c-0.5,1.8-0.2,3.8-0.2,5.6c0,1.2-0.2,2.1-1.1,2.9c-0.8,0.7-1.7,0.7-2.7,0.9c-0.8,0.1-1.5,0.5-2.2,0.8c-1.4,0.5-3,0.9-4.5,1.2&#10;&#9;C120.3,464.8,119.2,465.2,118,464.4z M125.1,455.4c0-0.3-0.7-0.7-0.8-0.3C124.2,455.6,125.1,455.7,125.1,455.4z M128.8,451.1&#10;&#9;c0-0.5-0.8-0.5-0.8,0C128,451.6,128.8,451.7,128.8,451.1z M131.1,450.5c-0.2-0.2-1,0.1-1,0.1C130.4,450.8,131.1,450.7,131.1,450.5z&#10;&#9; M128.7,447.1c0.2-0.6-3.4,0.1-3.7,0.4c-0.2,0.2-0.1,0.1,0.1,0.3c0.3,0.2,1.2,0.2,1.6,0.2C127.4,448,128.4,447.8,128.7,447.1z&#10;&#9; M129.8,444.4c0.4-0.1,0.9-0.6,0.4-0.9c-0.4-0.3-1.3,0.3-1.6,0.5C127.3,444.9,129.2,444.6,129.8,444.4z M144.8,442.7&#10;&#9;c0.5-0.9-1.2-0.8-1.3-0.2C143.3,443.2,144.5,443,144.8,442.7z M149.9,441.4c0.6-0.4-0.3-0.4-0.5-0.4c-0.3,0-2-0.1-2.1,0.4&#10;&#9;C147.1,442.1,149.6,441.6,149.9,441.4L149.9,441.4z M154.1,440.2c0.7-0.7-1.4-0.1-1.5-0.1c-0.6,0.2-1.1,0.6-1.7,0.9&#10;&#9;C151.9,440.9,153.3,440.8,154.1,440.2z M138.2,439.8c1.2-0.1,2.4-0.4,3.5-0.9c0.6-0.2,1.5-0.7,1.7-1.3c0.2-0.6-0.3-1.2-0.6-1.7&#10;&#9;c-0.6-1.2-1.4-2.3-2.1-3.5c-1-1.6-2-3.1-2.9-4.8c-0.3-0.6-0.8-1.3-0.9-2c0-0.2,0-0.3,0-0.5c0.2-0.5,0.6-0.6-0.2-0.5&#10;&#9;c-0.4,0-0.6,0.1-0.9-0.2c-0.3-0.3-0.2-1-0.6-1.2c-0.3-0.2-0.7,0.1-0.9,0.3c-0.3,0.4-0.4,1-0.5,1.5c-0.2,1.1-0.2,2.1-0.3,3.2&#10;&#9;c-0.1,2.2-0.2,4.3-0.4,6.5c-0.1,1.1-0.2,2.2-0.2,3.3c0,0.5-0.1,1.3,0.2,1.7c0.4,0.6,1.2,0.7,1.8,0.6&#10;&#9;C136,440.1,137.1,439.9,138.2,439.8z M128.9,439.3c-0.5-0.5-1.5,0.1-1,0.4C128.1,439.9,129.5,439.9,128.9,439.3z M148.1,438.9&#10;&#9;c0.3-0.5-0.8-0.5-1-0.2C146.8,439.4,147.8,439.4,148.1,438.9z M150.1,436.9c0.3-0.5-1.2-0.5-1.2,0.1&#10;&#9;C148.8,437.6,149.9,437.2,150.1,436.9z M131,435.3c0.3-0.4-0.4-0.5-0.6-0.1C130.2,435.8,130.8,435.7,131,435.3z M129.2,425.6&#10;&#9;c0-0.6-1.2-0.6-1.2,0S129.2,426.1,129.2,425.6z M133.7,421.9c0.6-0.3,1.1-0.3,1.7,0c0.4,0.2,0.9,0.5,1.4,0.3&#10;&#9;c1.3-0.6-1.1-1.3-1.5-1.4c-0.8-0.2-2,0-2.6,0.7C131.9,422.5,133.2,422.1,133.7,421.9z M137.9,418.7c0.3-0.5-0.8-0.5-1-0.2&#10;&#9;C136.6,419.1,137.6,419.1,137.9,418.7z M135.5,417c0.3-0.5-0.8-0.5-1-0.2C134.2,417.5,135.2,417.5,135.5,417z M132,416.2&#10;&#9;c0-0.7-1.1-0.3-1.1,0.2C131.1,416.8,132,416.7,132,416.2z M137.8,415.6c0.9-1-0.8-0.4-1.1,0C136.1,416.6,137.5,415.9,137.8,415.6z&#10;&#9; M180.9,447.6c-1.2-0.3-2.5-0.5-3.5-1.2c-1.2-0.7-2.4-1.4-3.5-2.1c-2.3-1.3-4.3-3.1-5.9-5.1c-3.4-4.2-5.5-9.3-6.1-14.7&#10;&#9;c-0.3-2.4-0.4-4.9-0.2-7.3c0.2-2,0.9-4,1.5-5.9c1.6-4.4,5-8.5,8.9-11.1c2.3-1.5,4.7-2.9,7.3-3.8c2.2-0.8,4.8-1.2,7.1-1.6&#10;&#9;c2.6-0.4,5.4-0.4,8.1,0.1c1.2,0.2,2.3,0.6,3.4,1.1c0.7,0.3,1.4,0.4,2.1,0.7c1.7,0.8,3.4,1.8,5,2.9c0.8,0.5,1.7,1.4,1.7,2.4&#10;&#9;c-0.1,0.8-0.9,1.7-1.4,2.3c-0.7,0.7-1.5,0.9-2.2,1.5c-0.7,0.7-1.5,1.4-2.3,2c-1.2,1-2.9,2.9-4.7,2.6c-1.3-0.2-2.2-1.1-3.3-1.7&#10;&#9;c-0.9-0.4-1.9-0.6-2.9-0.7c-2.4-0.2-4.9,0.2-7.1,1.1c-4.8,1.9-6.9,6.8-6.6,11.7c0.1,2.8,0.8,5.8,1.9,8.3c1,2.2,2.7,3.8,4.6,5.3&#10;&#9;c3.7,2.8,9.2,2.7,13.2,0.3c2.1-1.3,4.1-3.1,5.2-5.3c0.3-0.7,0.7-1.6,0.5-2.3c-0.3-0.7-1-0.8-1.7-0.8c-1.2,0-2.4,0.2-3.6,0.5&#10;&#9;c-1.2,0.4-2.3,1-3.6,1.2c-1.6,0.3-3.5,0.3-4.3-1.3c-0.5-1.1-0.7-2.3-1-3.4c-0.2-1.1-0.6-2.2-0.8-3.4c-0.6-2.6,2.6-3.3,4.4-3.7&#10;&#9;c2.3-0.5,4.6-0.8,6.8-1.4c2.7-0.7,5.3-1.6,7.9-2.4c2-0.6,4-0.7,6.1-0.9c0.8-0.1,0.9-0.2,1.2,0.5c0.3,0.7,0.6,1.4,0.8,2.1&#10;&#9;c0.7,2.7,1.2,5.5,1.3,8.3c0,2.8-0.6,5.8-1.3,8.5c-0.7,2.6-1.8,5.1-3.4,7.2c-1.7,2.2-4,4.1-6.4,5.5c-5.2,3.2-11.1,4.3-17.1,4.5&#10;&#9;C184.8,448.1,182.8,448,180.9,447.6z M175,438.5c0-0.7-0.6-0.3-0.6,0.1C174.4,439.1,175,439,175,438.5z M180.7,437.3&#10;&#9;c0,0,0.4-0.2,0.4-0.3c-0.1-0.3-1.4,0.1-1.4,0.4C179.5,438.1,180.5,437.5,180.7,437.3z M172.5,415.2c-0.2-0.2-1,0.1-1,0.1&#10;&#9;C171.8,415.5,172.4,415.4,172.5,415.2z M168.4,412.2c0.3-0.4-0.4-0.5-0.6-0.1C167.6,412.7,168.1,412.6,168.4,412.2z M174.3,410.5&#10;&#9;c-0.5-0.5-1.5,0.1-1,0.4C173.5,411.1,174.9,411.1,174.3,410.5z M177.9,409.3c0-0.5-0.8-0.5-0.8,0&#10;&#9;C177.1,409.8,177.9,409.9,177.9,409.3z M281,446.5c0-1.7,0.5-3.5,0.8-5.1c0.5-2.9,1.1-5.9,1.6-8.8c0.6-3.1,1.2-6.3,1.7-9.4&#10;&#9;c0.2-1.2,0.4-2.3,0.6-3.5c-0.1,2.9-0.1,5.8-0.2,8.7c-0.2,4.9-1.3,9.5-2.9,14.2c-0.4,1.1-0.7,2.1-1.2,3.2&#10;&#9;C281.5,445.8,281,446.9,281,446.5C281,446,281,447.7,281,446.5z M-73.6,438.6c-0.8-1.9-1.1-4-1.5-6.1c-0.3-2.1-0.6-4.2-0.6-6.3&#10;&#9;c0-0.8,0.2-2.4,0.9-0.9c1.1,2.5,1.4,5.4,1.8,8c0.3,1.8,0.6,3.7,0.5,5.5C-72.7,440.3-73.3,439.5-73.6,438.6z M240,434.1&#10;&#9;c-4.8-0.5-9.4-2.8-13.1-5.9c-1.4-1.2-3.1-2.6-4.2-4.2c-1.5-2.3-3-4.7-4-7.3c-1-2.7-1.5-5.5-1.5-8.4c0-2.8,0.2-6.1,1.1-8.8&#10;&#9;c1.7-4.9,4.8-9.4,8.8-12.6c2.5-2,5.5-3.8,8.6-4.7c1.2-0.3,2.4-0.4,3.6-0.7c1.1-0.3,2.1-0.5,3.2-0.6c5.4-0.4,10.9,0.9,15.7,3.5&#10;&#9;c2.2,1.2,4,2.8,5.7,4.6c1.8,1.9,3.4,3.9,4.6,6.3c2.9,6.3,3.7,13.5,1.6,20.2c-1.7,5.4-5.1,10.1-9.7,13.4c-4.6,3.4-10.1,5.4-15.9,5.3&#10;&#9;C243.1,434.3,241.6,434.2,240,434.1z M249.2,420.7c0.8-0.6,1.8-0.8,2.6-1.5c1-0.9,1.9-2.1,2.7-3.2c1.9-2.8,2.7-6.1,2.2-9.5&#10;&#9;c-0.8-5.5-4.9-11.4-10.7-12.4c-2.3-0.4-5.2,0.2-7.3,1c-1.9,0.8-3.1,2.3-4.1,4c-1.7,2.8-2.7,5.7-2.3,9c0.4,2.8,1.3,5.8,2.9,8.2&#10;&#9;c1.4,2,3.7,4.1,6.1,4.8c1.5,0.4,3.1,0.4,4.6,0.4C246.9,421.5,248.2,421.5,249.2,420.7z M229.2,419.1c0.3-0.4-0.7-0.6-0.9-0.2&#10;&#9;c0,0.1,0.2,0.5,0.3,0.5C229,419.5,229.1,419.3,229.2,419.1z M263.7,413.4c0.3-0.4-0.4-0.5-0.6-0.1&#10;&#9;C262.9,413.9,263.5,413.8,263.7,413.4z M263.3,410.5c0.4-0.6-0.7-0.4-0.8,0C262.3,411.2,263.1,410.9,263.3,410.5z M226.6,409.3&#10;&#9;c0-0.7-0.6-0.3-0.6,0.1C225.9,409.9,226.6,409.8,226.6,409.3z M233.5,391.9c0-0.7-1.1-0.3-1.1,0.2&#10;&#9;C232.5,392.5,233.5,392.3,233.5,391.9z M237.5,390.7c0-0.7-1.1-0.3-1.1,0.2C236.6,391.3,237.5,391.1,237.5,390.7z M254,390.3&#10;&#9;c-0.3-0.3-1.1,0.5-1,0.6C253.2,391.1,254,390.6,254,390.3z M243,389.4c0.4-0.6-0.7-0.4-0.8,0C242,390.1,242.8,389.8,243,389.4z&#10;&#9; M247.1,388.6c0.3-0.5-0.9-0.6-1-0.1C245.9,389.3,246.8,389,247.1,388.6z M-47.7,415.8c-0.5-0.9-0.4-1.9-0.6-2.8&#10;&#9;c-0.2-1.2-0.5-2.4-0.8-3.6c-0.9-3.5-1.8-6.9-2.9-10.3c-0.5-1.6-0.9-3.1-1.2-4.8c-0.2-1.4-0.7-2.6-1-3.9c-0.5-1.8-0.8-3.6-1.2-5.4&#10;&#9;c-0.3-1.4-1-2.6-1.3-4c-0.8-3.1-1.5-6.3-2.1-9.4c-0.3-1.4-0.6-3.4,1-4.1c1.4-0.6,3.1-0.8,4.5-1.1c1.6-0.4,3.2-0.8,4.9-1.2&#10;&#9;c3.2-0.7,6.3-1.4,9.5-2c3.5-0.7,7.1-1.1,10.6-0.4c3.6,0.6,7.2,2.1,10.2,4.1c2.3,1.5,4.2,3.7,5.6,6.1c0.3,0.6,0.8,0.7,1,1.3&#10;&#9;c0.3,0.8,0.6,1.6,0.9,2.4c0.3,0.7,0.5,1.4,0.7,2.1c0.1,0.6,0.5,1,0.7,1.6c1,2.6,1.3,5.5,1.5,8.2c0.1,2.2,0.4,4.8-0.3,7&#10;&#9;c-0.8,2.6-2.2,5.3-3.9,7.4c-1.2,1.4-2.5,2.8-3.9,4.1c-0.3,0.3-0.7,0.6-1.1,0.8c-0.7,0.4-1.2,0.8-1.8,1.3c-0.4,0.3-1,0.4-1.5,0.6&#10;&#9;c-0.6,0.2-1.1,0.5-1.6,0.7c-0.7,0.3-1.4,0.5-2.1,0.8c-2.4,0.8-4.8,1.4-7.2,2.1c-3.6,1-7.3,1.9-11,2.8c-1.4,0.3-3.5,1.1-4.9,0.5&#10;&#9;C-47.3,416.3-47.6,416.1-47.7,415.8z M-37.7,407.1c0.7-1.8-1.6,0.2-2.1,0.6C-39.1,407.7-38.1,407.8-37.7,407.1z M-33.9,406.5&#10;&#9;c0-0.8-1.4-0.1-1.5,0.2C-35.5,407-33.9,407-33.9,406.5z M-43.3,405.3c0-0.4-0.7-0.6-0.6-0.1C-43.9,405.5-43.3,406-43.3,405.3z&#10;&#9; M-28.4,405.3c0.3-0.5-0.8-0.5-1-0.2C-29.7,405.7-28.7,405.7-28.4,405.3z M-24.8,404.1c0.3-0.4-0.7-0.6-0.9-0.2&#10;&#9;c0,0.1,0.2,0.5,0.3,0.5C-25.1,404.5-24.9,404.3-24.8,404.1z M-37.6,402.4c0-0.7-1.4-0.4-1.4,0.1C-39.1,403-37.6,402.9-37.6,402.4z&#10;&#9; M-43.3,401.4c0.4-0.2,1.7-0.9,0.6-0.8c-0.6,0.1-1.4,0.5-1.9,0.8c-0.2,0.1-0.8,0.4-0.5,0.7C-44.9,402.2-43.6,401.5-43.3,401.4z&#10;&#9; M-32.3,401.2c2.9-0.9,5.7-2.8,7.5-5.3c1.5-2,1.8-3.8,1.7-6.3c-0.2-3.1-0.9-6.2-2.5-8.9c-1.3-2.3-3.2-3.3-5.7-4.1&#10;&#9;c-2.5-0.8-5-0.9-7.5-0.6c-1,0.1-2.6,0.6-2.7,1.8c-0.1,1.2,0.7,2.7,1,3.9c0.3,1.1,0.4,2.2,0.7,3.4c0.6,2.6,1.4,5.2,2,7.9&#10;&#9;c0.4,1.6,0.3,3.3,0.7,4.9c0.3,1,0.5,2.5,1.3,3.2C-34.8,402-33.3,401.5-32.3,401.2z M-11.8,387.8c0.4-0.6-0.7-0.4-0.8,0&#10;&#9;C-12.9,388.5-12,388.2-11.8,387.8z M-17.9,386.6c0.3-0.5-0.8-0.5-1-0.2C-19.2,387.1-18.2,387.1-17.9,386.6z M-18.5,383.8&#10;&#9;c0-0.7-1.1-0.3-1.1,0.2C-19.5,384.4-18.5,384.2-18.5,383.8z M-47.5,377.3c0.3-0.5-1.1-0.5-1.2,0C-48.9,378-47.7,377.6-47.5,377.3z&#10;&#9; M-20.5,376.9c0-0.5-0.8-0.5-0.8,0C-21.3,377.4-20.5,377.4-20.5,376.9z M-44.8,375.4c-0.1,0-1.4-0.2-1.4,0.1&#10;&#9;C-46.2,375.6-44.5,375.7-44.8,375.4z M-21.1,374.4c0.3-0.4-0.4-0.5-0.6-0.1C-21.9,374.9-21.4,374.8-21.1,374.4z M-41.4,373.3&#10;&#9;c-0.3-0.3-1.3,0.5-1,0.9C-42.2,374.5-41.4,373.7-41.4,373.3z M-23.8,374c1.1-0.7-1.6-0.1-1.5,0.3C-25.2,374.7-23.9,374.1-23.8,374z&#10;&#9; M-44.1,373.2c0-0.5-1.5-0.6-1.4-0.1C-45.4,373.7-44.1,373.9-44.1,373.2z M-48.8,372.9c-0.2-0.1-1.4-0.1-1,0.2&#10;&#9;C-49.7,373.3-48.5,373.1-48.8,372.9z M287.1,410.1c-0.2-11.8-0.7-23.6-2.2-35.3c-0.7-5.7-1.6-11.3-2.6-17c-0.5-2.6-0.9-5.2-1.3-7.9&#10;&#9;c-0.2-1.3-0.5-2.8-0.3-4.1c0.2-2,1.5,1.3,1.6,1.7c1.1,3.6,1.7,7.4,2.3,11.1c1.7,10.4,2.7,20.9,3.1,31.4c0.3,8,0.1,15.9-0.4,23.9&#10;&#9;c0,0.4,0,0.7-0.1,1.1C287.1,413.5,287.1,411.8,287.1,410.1z M3,404.1c-1.2-1-1.5-3.4-1.8-4.8c-0.5-2.2-1-4.5-1.7-6.7&#10;&#9;c-1.2-4.2-2.2-8.4-3-12.7c-1-4.8-2.1-9.6-3.4-14.3c-0.7-2.4-1.5-4.8-2.1-7.3c-0.3-1.2,0.3-2.3,1.4-2.8c1.3-0.7,2.9-1,4.3-1.3&#10;&#9;c2.2-0.6,4.4-1.1,6.6-1.6c4.8-1.1,9.5-2.3,14.3-3.3c1.4-0.3,3.7-0.9,4.4,0.9c0.2,0.7,0.2,1.6,0.4,2.3c0.3,1.4,0.7,2.7,1,4.1&#10;&#9;c0.2,0.9,0.8,2.5,0,3.2c-0.8,0.7-2.3,1-3.2,1.3c-2.3,0.7-4.5,1.2-6.8,1.7c-1.3,0.3-4.7,0.6-4.9,2.5c-0.1,1.1,0.2,2.3,0.5,3.3&#10;&#9;c0.2,0.6,0.3,1.3,0.8,1.8c0.7,0.7,2,0.5,2.9,0.3c2.4-0.4,4.7-1.2,7-1.9c1.3-0.4,2.9-0.9,4.3-0.8c0.8,0.1,1.2,0.4,1.5,1.1&#10;&#9;c0.7,1.5,1.1,3.2,1.5,4.8c0.3,1.4,1.1,3.6,0,4.9c-1,1.1-3.3,1.4-4.6,1.7c-2.5,0.6-5,0.8-7.4,1.6c-0.5,0.2-1.5,0.4-1.8,0.9&#10;&#9;c-0.4,0.6-0.1,1.9,0,2.5c0.2,1.4,0.6,3.6,2.5,3.6c1.8,0,3.7-0.7,5.4-1.1c2.1-0.5,4.1-1.1,6.1-1.7c0.6-0.2,1.3-0.4,1.9-0.6&#10;&#9;c0.6-0.2,0.6-0.2,1,0.2c0.6,0.6,1.1,1.1,1.4,1.8c0.4,0.9,0.5,2.1,0.8,3.1c0.4,1.6,1.5,4,0.8,5.7c-0.5,1.2-1.8,1.5-3,1.7&#10;&#9;c-1.2,0.2-2.5,0.5-3.7,0.8c-3.1,0.7-6.2,1.5-9.3,2.4c-3.6,1-7.2,2.2-10.9,2.9C5,404.7,3.9,404.9,3,404.1z M12.9,394.9&#10;&#9;c1.2-1.2-0.5-1-1.1-0.4c-0.2,0.2-0.5,0.7-0.1,1C12.1,395.7,12.7,395.1,12.9,394.9z M17.2,393.9c0-0.8-1.4-0.1-1.5,0.2&#10;&#9;C15.6,394.4,17.2,394.4,17.2,393.9z M10.1,393.5c0.3-0.4-0.4-0.5-0.6-0.1C9.3,394,9.8,393.9,10.1,393.5z M7.9,392.7&#10;&#9;c0-0.5-1.5-0.6-1.4-0.1C6.5,393.1,7.9,393.3,7.9,392.7z M22.5,392.7c0-0.7-0.6-0.3-0.6,0.1C21.8,393.3,22.5,393.1,22.5,392.7z&#10;&#9; M10.1,391.1c0.3-0.5-1.5-0.6-1.6,0C8.3,391.7,9.9,391.5,10.1,391.1z M13.5,390c0.6-0.5-1.2-0.4-1.3-0.4c-0.3,0.1-1.5,0.3-1.5,0.7&#10;&#9;C10.7,390.9,13.2,390.3,13.5,390z M7.8,389c0.4-0.2,1.8-1.1,0.7-1.2c-0.7,0-1.5,0.4-2.1,0.7c-0.3,0.2-1.2,0.5-0.9,1&#10;&#9;C5.9,390.3,7.4,389.3,7.8,389z M10.2,384.7c0.1-0.1,1-1,0.8-1.2c-0.2-0.2-1.9,1.7-2,1.9C8.6,386.4,10,384.9,10.2,384.7z M8.3,383.6&#10;&#9;c1-1.2-1.3,0-1.6,0.2c-0.4,0.3-0.5,0.3,0,0.4C7.2,384.3,7.9,384,8.3,383.6z M10.5,381.3c0.3-0.4-0.4-0.5-0.6-0.1&#10;&#9;C9.7,381.8,10.3,381.7,10.5,381.3z M6.8,378.5c0.2-0.2,1.5-1.2,0.8-1.2c-0.4-0.1-1.3,0.6-1.6,0.9c-0.2,0.2-1,0.6-1,0.9&#10;&#9;C5,379.8,6.7,378.6,6.8,378.5z M6,376.1c-0.3-0.4-1.3-0.5-1,0.2C5.2,376.6,6.3,376.5,6,376.1z M9.9,374.9c1.2-0.8-0.7-0.6-1.2-0.4&#10;&#9;c-0.3,0.2-0.6,0.4-0.3,0.7C8.8,375.5,9.6,375,9.9,374.9z M7.1,374c0-0.6-1.2-0.6-1.2,0S7.1,374.6,7.1,374z M5,372.4&#10;&#9;c0-0.5-0.8-0.5-0.8,0C4.2,372.9,5,372.9,5,372.4z M8.7,372.2c0-0.3-0.7-0.7-0.8-0.3C7.7,372.4,8.7,372.5,8.7,372.2z M3.1,364.8&#10;&#9;c-0.2-0.1-1.4-0.1-1,0.2C2.3,365.1,3.5,365,3.1,364.8z M6,363.1c-0.2-0.3-0.7-0.3-1-0.4c-0.1,0-0.8,0-0.8,0.1&#10;&#9;C4.5,363.1,6.5,363.8,6,363.1z M6.7,360.6c0-0.4-0.9-0.6-1.1-0.2C5.5,360.9,6.7,361.4,6.7,360.6z M-0.4,360.4c-0.2-0.2-1,0.1-1,0.1&#10;&#9;C-1.1,360.8-0.4,360.6-0.4,360.4z M2.1,360.4c-0.2-0.2-1,0.1-1,0.1C1.4,360.8,2,360.6,2.1,360.4z M-77.5,399.1&#10;&#9;c-0.3-1.3-0.3-2.8-0.1-4c0-0.3,0.1-1.1,0.4-1.3c0.4-0.3,0.5,0.4,0.7,0.8c0.4,1.1,0.4,2.3,0.2,3.4C-76.4,398.5-77.1,400.9-77.5,399.1&#10;&#9;z M57.3,390.2c-0.7-1-0.9-2.2-1.2-3.4c-0.5-1.8-0.9-3.7-1.4-5.5c-0.8-3.2-1.6-6.4-2.3-9.6c-0.7-3.1-1.7-6.1-2.2-9.2&#10;&#9;c-0.6-3.2-1.3-6.4-2-9.6c-0.6-2.5-1.9-4.8-2.3-7.4c-0.2-1.2,0-2.3,1.1-3.1c1.8-1.2,4.3-1.6,6.4-2.1c3.5-0.8,7-1.4,10.4-2.4&#10;&#9;c5.4-1.5,11.8-2,16.4,1.7c1.1,0.9,2.2,1.9,3.2,3.1c0.7,0.8,1.1,1.8,1.6,2.7c1.7,2.6,2.3,5.8,2.5,8.9c0.1,3-0.3,6.2-1.8,8.9&#10;&#9;c-1.4,2.5-3.5,4.3-6,5.6c-3,1.6-6.3,2-9.6,2.8c-1.5,0.3-2.8,1.1-2.6,2.7c0.1,1.2,0.6,2.5,0.9,3.7c0.5,1.7,1,3.5,1.4,5.2&#10;&#9;c0.3,1.3,1,3.5,0.1,4.8c-0.8,1-2.7,1.2-3.9,1.5c-2.1,0.6-4.3,1.1-6.5,1.5C58.7,391.1,57.9,391,57.3,390.2z M62.9,377.3&#10;&#9;c0.3-0.5-0.8-0.5-1-0.2C61.6,377.8,62.6,377.7,62.9,377.3z M62.2,374.9c1-0.6-0.3-0.9-0.9-0.4c-0.2,0.2-0.5,0.4-0.2,0.7&#10;&#9;C61.4,375.4,62,375,62.2,374.9z M61.6,370.3c0.7-1.2-1.6-0.6-1.8-0.1C59.6,371.1,61.4,370.8,61.6,370.3z M65.1,369.2&#10;&#9;c0-0.5-1.4-0.5-1.8-0.7c-0.4-0.2-1-0.6-0.7,0.2C62.9,369.3,65.1,369.9,65.1,369.2z M60.9,367.7c0.6-1.5-1.1-0.8-1.4,0&#10;&#9;C59.1,368.7,60.6,368.3,60.9,367.7z M66.5,366.7c0.3-0.5-1.5-0.6-1.6,0C64.7,367.4,66.3,367.1,66.5,366.7z M63.3,365.9&#10;&#9;c0.4-0.6-0.7-0.4-0.8,0C62.2,366.6,63,366.2,63.3,365.9z M60,363.1c0.5-0.8-2.3,0.1-2.1,0.3C58.1,363.7,59.8,363.4,60,363.1z&#10;&#9; M77.5,362.3c0.3-0.4-0.7-0.6-0.9-0.2c0,0.1,0.2,0.5,0.3,0.5C77.2,362.7,77.3,362.5,77.5,362.3z M71.7,360.6&#10;&#9;c-0.4-0.4-1.8,0.1-1.5,0.4C70.4,361.2,72.3,361.1,71.7,360.6z M69.9,358.8c2.1-1.1,3.1-3.5,2.5-5.8c-0.6-2.4-2.5-3.4-4.8-3.6&#10;&#9;c-1.9-0.2-4.6-0.3-5.4,1.8c-0.2,0.6-0.3,1.2-0.3,1.8c0,0.6,0.3,1,0.5,1.5c0.5,1.5,0.5,3,1.2,4.5c0.5,1.1,1.1,1.4,2.2,1.2&#10;&#9;C67.3,360,68.7,359.5,69.9,358.8z M56,359.8c0.3-0.5-1.1-0.5-1.2,0C54.6,360.5,55.7,360.2,56,359.8z M61.4,358.6&#10;&#9;c0-0.7-1.9-0.5-1.9,0.1C59.6,359.2,61.4,359.1,61.4,358.6z M79.4,355.9c-0.2-0.1-1.4-0.1-1,0.2C78.6,356.2,79.7,356,79.4,355.9z&#10;&#9; M57.3,353.5c-0.2-0.2-1,0.1-1,0.1C56.5,353.9,57.2,353.7,57.3,353.5z M81.3,352.5c0-0.6-1.2-0.6-1.2,0S81.3,353.1,81.3,352.5z&#10;&#9; M59,351.3c0-0.7-0.6-0.3-0.6,0.1C58.3,351.9,59,351.7,59,351.3z M79.3,349.7c0.8-0.5-1.4-0.5-1.6-0.3c-0.3,0.2-0.3,0.4,0.1,0.6&#10;&#9;C78.2,350.2,78.9,349.9,79.3,349.7z M60.9,349.4c-0.2-0.2-1,0.1-1,0.1C60.2,349.8,60.9,349.7,60.9,349.4z M58.2,348.4&#10;&#9;c0-0.6-0.9,0.1-0.8,0.5C57.5,349.5,58.2,348.7,58.2,348.4z M78.5,346.8c0-0.7-0.6-0.3-0.6,0.1C77.8,347.4,78.5,347.3,78.5,346.8z&#10;&#9; M-94.9,382.9c-0.7-0.8-1-1.9-1.1-2.9c0-0.5,0-1,0.1-1.5c0.1-0.5,0.5-1,0.5-1.5c0.1-1.1-1-1.3-1.8-1.4c-0.6-0.1-1.1-0.4-1.4-0.9&#10;&#9;c-0.7-1.4-0.1-3.3,0.6-4.5c0.9-1.6,2.3-2.4,4.1-3c0.9-0.3,1.7-0.5,2.6-0.6c0.5-0.1,1.6-0.4,2.1-0.1c0.9,0.5-2,3.3-2.3,3.8&#10;&#9;c-0.8,1-2.8,2.7-2.3,4.2c0.4,0.9,3.3,2.3,2.9,3c-0.3,0.6-2,0.4-2.6,0.9c-0.6,0.6-0.5,1.5-0.4,2.2c0.1,0.7,0.8,2.5,0.3,3.1&#10;&#9;C-94,384.2-94.6,383.3-94.9,382.9z M92.4,382.3c-0.7-0.7-0.5-1.7-0.5-2.6c0.2-3.7,0.8-7.4,1.2-11.1c0.7-7.4,1.6-14.7,2.2-22.1&#10;&#9;c0.3-4,0.6-8,1.1-12c0.2-1.6,0.4-3.7,1.7-4.9c1.3-1.1,3.2-1.3,4.8-1.7c1.7-0.3,3.4-0.7,5-1.1c1.4-0.3,2.9-0.9,4.4-1&#10;&#9;c2.9-0.1,4.5,3.3,5.7,5.4c1,1.8,2.3,3.4,3.3,5.2c0.9,1.6,1.9,2.9,2.9,4.4c2.2,3.2,3.9,6.7,6.2,9.7c0.5,0.6,0.6,1.3,1,1.9&#10;&#9;c0.6,1,1.5,1.9,2.1,2.8c0.9,1.4,1.7,2.9,2.7,4.3c1.8,2.7,3.5,5.4,5.3,8.1c0.2,0.3,0.7,0.8,0.7,1.1c0,0.3-0.5,0.9-0.7,1.2&#10;&#9;c-0.9,1.5-2.5,1.6-4,2c-2,0.5-4,1.2-6.1,1.4c-1.4,0.1-3.7,0.4-4.1-1.3c-0.1-0.5-0.1-0.8-0.4-1.2c-0.3-0.4-0.6-0.7-0.8-1.2&#10;&#9;c-0.1-0.5-0.1-0.8-0.5-1.3c-0.3-0.3-0.6-0.6-0.9-1c-0.9-1.4-2.4-1-3.8-0.7c-1.6,0.3-3.2,0.6-4.8,1c-1.2,0.3-2.3,0.8-3.5,1.1&#10;&#9;c-1.6,0.5-3.4,0.5-4.9,1.2c-0.9,0.4-1.1,1.2-1.2,2.1c-0.2,2.7,0.9,6.5-2.1,7.9c-1,0.5-2.2,0.5-3.2,0.9c-0.4,0.2-0.8,0.4-1.3,0.5&#10;&#9;c-1.4,0.4-2.8,0.7-4.2,1C94.8,382.9,93.5,383.3,92.4,382.3z M99.8,373.2c-0.3-0.4-1.3-0.5-1,0.2C99,373.7,100.1,373.7,99.8,373.2z&#10;&#9; M103.4,369.2c0.4-0.6-0.7-0.4-0.8,0C102.4,369.8,103.2,369.5,103.4,369.2z M102.3,366.1c0.5-0.1,1.4-1,0.5-1.3&#10;&#9;c-0.6-0.2-1.9,0.4-2.4,0.6c-0.6,0.2-1,0.2-0.2,0.6C101,366.3,101.5,366.3,102.3,366.1z M104.8,362.3c0.7-0.4,0-0.7-0.5-0.8&#10;&#9;c-0.4,0-1.1,0.1-1.3,0.4C102.2,362.9,104.4,362.5,104.8,362.3z M132,362.3c0-0.7-0.6-0.3-0.6,0.1C131.4,362.8,132,362.7,132,362.3z&#10;&#9; M119.5,360.5c0-0.8-1.7-0.3-1.6,0.2C117.9,361.3,119.5,361.1,119.5,360.5z M124.7,359.4c0.6-0.4-0.4-0.4-0.6-0.4&#10;&#9;c-0.6,0-1.7,0-2.2,0.4c-0.4,0.4,0.1,0.4,0.5,0.4C123.1,359.8,124.1,359.8,124.7,359.4z M128.2,358.4c0.4-0.3,0.6-0.5,0.1-0.6&#10;&#9;c-0.5-0.1-1.6,0.5-1.9,0.8c-0.4,0.3-0.4,0.3,0.1,0.4C127.1,359.1,127.7,358.8,128.2,358.4C129.3,357.6,127.8,358.7,128.2,358.4z&#10;&#9; M112.6,358c1.1-0.1,2.1-0.4,3.1-0.8c0.7-0.3,1.9-0.6,2.4-1.2c0.3-0.4,0.1-0.7-0.1-1.1c-1.5-3-3.6-5.8-5.3-8.7&#10;&#9;c-0.5-0.9-1.4-1.9-0.9-3c0.5-1.1-0.3-0.3-1.1-0.4c-0.8-0.1-0.3-1.7-1.4-1.3c-1.6,0.6-1.1,3.9-1.1,5.2c-0.1,2.5-0.2,4.9-0.3,7.4&#10;&#9;c0,1-0.4,3.5,0.5,4.3c0.3,0.3,0.7,0.2,1.1,0.1C110.4,358.3,111.5,358.1,112.6,358z M103.8,357.3c-0.4-0.4-1.8,0.1-1.5,0.4&#10;&#9;C102.5,357.9,104.4,357.8,103.8,357.3z M122.9,357c0.3-0.5-1.1-0.5-1.2,0C121.5,357.7,122.7,357.3,122.9,357z M124.9,355&#10;&#9;c0.3-0.5-1.1-0.5-1.2,0C123.5,355.6,124.7,355.3,124.9,355z M105.7,353.3c0-0.7-0.6-0.3-0.6,0.1C105,353.9,105.7,353.8,105.7,353.3z&#10;&#9; M103.8,343.6c-0.3-0.4-1.3-0.5-1,0.2C103,344.1,104.1,344.1,103.8,343.6z M108.7,339.9c0.8-0.4,1.1-0.2,1.8,0.2&#10;&#9;c0.3,0.2,1.3,0.4,1.5-0.1c0.3-0.8-1.7-1-2.1-1c-0.8,0-2.2,0-2.8,0.6c-0.2,0.2-0.4,0.5-0.1,0.8C107.4,340.5,108.3,340,108.7,339.9z&#10;&#9; M114.1,338.5c-0.2-0.2-1,0.1-1,0.1C113.3,338.8,114,338.7,114.1,338.5z M112.6,336.7c0-0.6-1.2-0.6-1.2,0&#10;&#9;C111.3,337.2,112.6,337.2,112.6,336.7z M110.1,335.1c0-0.7-1.1-0.3-1.1,0.2C109.1,335.7,110.1,335.5,110.1,335.1z M106.9,334.5&#10;&#9;c0-0.4-0.8-0.6-1-0.2C105.6,334.9,106.9,334.7,106.9,334.5z M112.5,333.5c0.2-0.7-1-0.2-1.1,0.4&#10;&#9;C111.3,334.7,112.3,333.9,112.5,333.5z M-75.3,368.3c0-2.4,0.4-4.8,0.8-7.1c0.4-2,0.7-4.2,1.5-6.1c0.2-0.3,0.2-0.6,0.3-0.2&#10;&#9;c0.1,0.2,0,0.7,0,0.9c0,0.7,0,1.4-0.1,2.1c-0.1,3.1-0.3,6.2-1.2,9.2c-0.1,0.4-0.7,3.2-1.2,3.3C-75.4,370.4-75.3,368.5-75.3,368.3z&#10;&#9; M155.4,365.5c-4.3-1.1-8.4-3.6-11.6-6.6c-1.4-1.3-2.3-3.1-3.2-4.7c-1.1-1.9-2.1-3.9-2.9-6c-1.4-3.9-1.6-7.9-1.4-12&#10;&#9;c0-0.9,0.1-1.7,0.2-2.6c0.1-0.6,0.4-1.2,0.6-1.8c0.4-1.5,0.7-3,1.4-4.3c0.5-1.1,1.2-2.1,1.9-3.1c1.3-2,3.3-3.9,5.1-5.4&#10;&#9;c1.6-1.3,3.4-2.2,5.2-3.2c1.4-0.7,3-1.7,4.7-2c2.8-0.5,5.4-1.3,8.2-1.4c5.5-0.2,11,1.4,15.5,4.6c0.8,0.5,1.5,1.2,2,2&#10;&#9;c0.7,1.1,0.2,2-0.7,2.8c-1,0.9-2.1,1.7-3.2,2.5c-1.2,1-2.3,2-3.5,2.9c-1.6,1.2-2.7,1.3-4.4,0.4c-0.9-0.4-1.6-1.2-2.6-1.4&#10;&#9;c-1.1-0.3-2.3-0.3-3.4-0.3c-2.6,0.1-5.3,0.5-7.5,1.9c-2.3,1.5-3.9,4-4.6,6.6c-0.6,2.5-0.3,5.2,0.2,7.7c0.5,2.5,1.1,5,2.7,7&#10;&#9;c1.8,2.4,4.4,4.3,7.3,4.9c2.9,0.6,5.9,0.2,8.5-1.3c2.2-1.2,4.4-3,5.6-5.3c0.4-0.8,0.6-1.5,0.5-2.4c-0.1-0.9,0.1-1-0.8-1&#10;&#9;c-0.8,0-1.6,0.1-2.4,0.2c-1.4,0.2-2.6,0.7-4,1.2c-1.4,0.5-3,0.6-4.4,0.4c-0.8-0.1-1.2-0.6-1.5-1.3c-0.8-1.9-1.2-4.2-1.5-6.2&#10;&#9;c-0.2-1.8,0-2.9,1.8-3.7c2.6-1.1,5.6-1.1,8.3-1.7c3-0.7,5.9-1.8,8.9-2.7c1.5-0.4,3-0.9,4.6-0.9c0.7,0,1.7-0.2,2.3,0.3&#10;&#9;c0.7,0.5,1,1.9,1.2,2.7c0.9,3.1,1,6.4,0.9,9.5c-0.1,1.8-0.3,3.6-0.6,5.3c-0.2,1-0.3,2-0.7,2.9c-1.4,2.8-2.6,5.3-4.7,7.6&#10;&#9;c-2.1,2.2-4.6,4.1-7.4,5.3c-2.1,0.9-4.1,1.7-6.3,2.1c-2.5,0.5-5,0.9-7.5,1.1C159.9,366.4,157.7,366.1,155.4,365.5z M149.8,356.7&#10;&#9;c-0.2-0.2-1,0.1-1,0.1C149.1,357.1,149.7,357,149.8,356.7z M155.4,355.4c0.4-0.6-0.7-0.4-0.8,0C154.3,356,155.2,355.7,155.4,355.4z&#10;&#9; M176.1,351.3c0.3-0.4-0.4-0.5-0.6-0.1C175.3,351.8,175.8,351.7,176.1,351.3z M147.5,333.2c0-0.2-1.4-0.3-1.2,0.3&#10;&#9;C146.4,333.9,147.3,333.4,147.5,333.2z M143.2,330.2c0.3-0.4-0.4-0.5-0.6-0.1C142.4,330.7,142.9,330.6,143.2,330.2z M149.1,328.6&#10;&#9;c0-0.7-1.4-0.4-1.4,0.1C147.6,329.2,149.1,329.1,149.1,328.6z M152.7,327.6c0-0.3-0.7-0.7-0.8-0.3&#10;&#9;C151.7,327.8,152.7,327.9,152.7,327.6z M-91.1,357.4c-0.5-1.9-0.3-4.2-0.1-6.2c0.2-2.5,0.7-4.9,1.1-7.4c0.8-4.6,1.4-9.2,2.7-13.7&#10;&#9;c1.4-4.9,3.3-9.7,5.5-14.3c1.1-2.3,2.4-4.5,3.9-6.5c0.5-0.7,1.1-1.4,1.8-1.9c0.4-0.3,1.1-0.2,1.4-0.7c0.4-0.7,0-1.9-0.2-2.7&#10;&#9;c-0.2-1-0.2-1.9,0-2.9c0.4-2.2,1.3-4.3,2.3-6.2c1.1-2.1,2.3-4.2,3.8-6c0.7-0.9,1.5-1.7,2.3-2.4c0.6-0.6,1.4-1.3,2.3-1.6&#10;&#9;c1.6-0.5,0.4,3.1,1.5,3.2c0.6,0.1,1.3-1.4,1.5-1.8c0.6-1.1,0.9-2.4,0.9-3.6c0.1-1.5,0.1-2.8,0.8-4.1c0.8-1.8,2.1-3.4,3.3-4.9&#10;&#9;c1.3-1.6,3.3-3.4,4-5.4c0.2-0.5,0.2-1,0.4-1.5c0.9-1.9,2.7-3.6,4.1-5.1c7-7.4,14.4-14.5,22-21.2c3.3-2.9,6.6-5.7,10.2-8.1&#10;&#9;c3.2-2.2,6.6-4.5,10.3-5.9c1.3-0.5,2.9-0.4,3.8-1.6c0.4-0.5,0.3-1.1,0.5-1.6c0.3-0.6,0.8-1.1,1.2-1.6c3.4-3.4,8.3-5.5,12.6-7.4&#10;&#9;c1.8-0.8,3.7-1.5,5.7-1.8c0.7-0.1,1.3-0.2,2-0.1c0.7,0,1.4,0.2,2.1,0c1.6-0.4,2.3-2.5,3.5-3.5c1.6-1.3,3.7-0.4,5.5-0.2&#10;&#9;c0.8,0.1,2.1,0.1,2.7-0.6c0.2-0.3,0.2-0.6,0.4-0.9c0.2-0.5,0.6-1,1-1.4c1.7-1.5,4.2-1.7,6.3-1.6c1,0.1,2,0.2,2.9,0.6&#10;&#9;c1,0.4,1.7,1.1,2.7,1.5c1.2,0.4,3.4-0.8,2.6-2.2c-0.6-1-1.9-1.9-2.7-2.7c1.3,0,2.7,0,4-0.2c2.2-0.4,4.4-1.3,6.5-2.1&#10;&#9;c1.5-0.6,3.1-1.3,4.6-1.9c1.1-0.4,2.3-1,3.4-1.1c2.2-0.2,3.6,2.8,4.8,4.1c1.1,1.1,1.2-0.8,1.2-1.5c0-0.8,0-2.2,0.8-2.7&#10;&#9;c0.8-0.6,1.9,0.2,2.8-0.3c0.5-0.2,0.9-0.7,1.3-0.9c1.7-1,4-1.1,5.9-1.3c4.4-0.5,8.9-0.6,13.3-0.7c6.5-0.2,13.1-0.3,19.6-0.2&#10;&#9;c10.5,0.2,20.9,1.2,31.1,3.5c9.5,2.1,18.8,4.9,27.8,8.4c5.6,2.2,11,4.8,16.7,6.5c1.9,0.6,3.7,1.1,5.5,2c2.6,1.3,4.9,3,7.3,4.6&#10;&#9;c2.4,1.7,4.8,3.3,7.3,4.7c0.9,0.5,1.8,1,2.7,1.3c0.8,0.3,1.7,0.5,2.4,1c1.1,0.8,1.7,2.2,2.6,3.2c0.8,1,1.7,1.8,3,2.1&#10;&#9;c1,0.3,2.3,0,3.1,0.7c0.8,0.7,0.6,2,0.3,2.9c-0.5,1.4-1.5,3.1-3.2,2.8c-1.5-0.3-2.9-1.1-4.2-1.8c-5.5-3-10.7-6.7-16.1-9.8&#10;&#9;c-10.3-5.9-21.1-10.8-32.4-14.4c-11.5-3.7-23.2-6.2-35.1-8.1c-5.3-0.9-10.7-1.7-16.1-2c-5.2-0.3-10.5-0.4-15.7-0.3&#10;&#9;c-11.7,0.2-23.3,1.8-34.8,4.1c-13.2,2.7-26.4,6.3-39,11c-4.9,1.8-9.8,3.9-14.4,6.4c-4.6,2.5-9,5.4-13.3,8.5c-2.3,1.7-4.6,3.5-7,5.2&#10;&#9;c-1.2,0.9-2.5,1.7-3.8,2.4c-0.8,0.4-1.7,0.6-2.5,1c-0.9,0.4-1.7,1-2.5,1.6c-3.1,2.4-5.9,5.2-8.7,7.9c-4.8,4.7-9.6,9.5-14.2,14.4&#10;&#9;c-3.8,4-7.5,8-11.1,12.1c-2,2.3-4.2,4.8-5.7,7.5c-0.5,0.9-0.6,1.9-1,2.8c-1,2.1-2.8,3.6-4.4,5.3c-3.5,3.7-5.1,8.4-7.6,12.7&#10;&#9;c-2,3.4-5.4,6-6.9,9.7c-0.9,2.3-1.3,4.9-1.8,7.3c-0.6,2.9-1.4,5.7-2.5,8.4c-0.7,1.8-1.6,3.8-3,5.2c-0.5,0.5-1,0.9-1.7,1.2&#10;&#9;c-0.8,0.3-1.7,0.2-2.5,0.4c-0.6,0.2-1.2,0.5-1.1,1.2c0.1,1.1,1,2.4,1.4,3.4c1,2.9,0.9,5.8,0.3,8.8c-0.6,2.8-1.6,5.7-3,8.3&#10;&#9;c-0.4,0.8-0.9,1.7-1.6,2.2C-90.7,359.4-91,358.1-91.1,357.4C-91.7,355.5-90.9,358.3-91.1,357.4z M286.8,353.7&#10;&#9;c-0.3-0.5-0.1-1.6-0.1-2.1c0-1.3,0.1-2.6,0.2-3.8c0-1,0.4-2.9-0.3-3.8c-0.4-0.5-1.2-0.3-1.7-0.8c-1.1-1-1.7-2.5-2.2-3.7&#10;&#9;c-1.7-3.9-2.8-8.1-3.2-12.3c-0.2-1.7-0.1-3.8-0.9-5.4c-0.5-0.8-1-0.6-1.8-0.8c-0.8-0.2-0.9-1.3-1-2c-0.4-2.3-0.6-4.5-1.3-6.7&#10;&#9;c-1.2-3.6-3.5-6.8-5.6-9.9c-1.1-1.6-2.2-3.1-3.4-4.6c-1-1.2-2.1-2.7-3.5-3.5c-0.4-0.2-0.7-0.3-1.1-0.3c-0.6,0.1-1.3,0.5-1-0.4&#10;&#9;c0.5-1.4,0.4-2.5,0.1-4c-0.4-1.8-1.1-3.6-1.9-5.3c-0.8-1.6-1.8-3.5-3.2-4.7c-0.7-0.6-0.9-0.3-1.6,0c-0.8,0.3-1.5,0-2.2-0.5&#10;&#9;c-1.2-0.8-2.2-1.9-3.1-3c-1-1.2-2-2.5-2.8-3.8c-0.2-0.4-1.3-1.8-0.8-2.4c0.8-0.8,3.2,1.7,3.6,2.1c0.9,0.9,1.7,1.9,2.6,2.9&#10;&#9;c0.4,0.5,0.8,0.9,1.2,1.4c0.2,0.2,0.5,0.7,0.8,0.8c0.7,0.2,0.7-1,1-1.5c0.4-0.7,1-0.2,1.5,0.1c1.1,0.7,2,1.6,2.9,2.6&#10;&#9;c2.8,3,5.3,6.4,7.7,9.8c5,7.1,9.4,14.3,13.1,22.2c1.8,3.7,3.4,7.5,4.8,11.4c1.2,3.4,2.4,7.1,2.1,10.7c-0.2,1.9-0.1,3.6,0.9,5.2&#10;&#9;c1.1,1.8,2.7,3.2,3.8,5.1c1.5,2.7,3,7.1,0.8,9.9C290.1,353.3,287.6,355,286.8,353.7z M214.5,352.1c-11.9-1.4-21.6-12.5-22.5-24.3&#10;&#9;c-0.5-5.9,1.1-12,4.4-16.9c1.5-2.2,3.5-4.1,5.6-5.8c2-1.6,4.3-3.2,6.7-4.2c0.9-0.4,1.8-0.6,2.8-0.8c1.3-0.3,2.7-0.7,4-1&#10;&#9;c2.6-0.5,5.4-0.3,8.1,0.1c5.2,0.8,10.5,3.3,14.3,7c4.2,4.1,7.3,9.6,8,15.5c0.2,1.4,0.1,2.8,0.3,4.2c0.1,0.7,0,1.3-0.1,2&#10;&#9;c-0.4,2.5-1,5.1-1.9,7.5c-1,2.7-2.5,5-4.4,7.1c-1.9,2.1-3.9,4.1-6.3,5.6c-2.4,1.4-5.1,2.9-7.8,3.5c-2.5,0.6-5.2,0.6-7.7,0.5&#10;&#9;C216.9,352.3,215.7,352.3,214.5,352.1z M224.3,338.5c2.4-1.2,3.9-2.9,5.3-5.2c1.6-2.5,2-5.2,1.7-8.2c-0.3-3.1-1.2-5.9-3.3-8.2&#10;&#9;c-1.8-2.1-4.3-3.9-6.9-4.6c-2.3-0.6-5-0.1-7.2,0.7c-1.8,0.6-3,1.7-4,3.2c-1.7,2.3-3,4.9-3.1,7.8c-0.1,3.1,0.8,6.4,2.2,9.2&#10;&#9;C211.8,338.5,218.8,341.3,224.3,338.5z M204.1,337.1c0.3-0.5-0.8-0.5-1-0.2C202.8,337.6,203.8,337.6,204.1,337.1z M238.5,331.4&#10;&#9;c0.3-0.4-0.4-0.5-0.6-0.1C237.8,331.9,238.3,331.8,238.5,331.4z M237.9,328.6c0-0.5-1.2,0-1.2,0.2&#10;&#9;C236.7,329.2,237.9,328.9,237.9,328.6z M235.7,319.2c0.3-0.4-0.7-0.6-0.9-0.2c0,0.1,0.2,0.5,0.3,0.5&#10;&#9;C235.4,319.7,235.6,319.5,235.7,319.2z M202.9,314.9c-0.2-0.2-1,0.1-1,0.1C202.2,315.3,202.9,315.2,202.9,314.9z M208.3,309.9&#10;&#9;c0-0.7-1.1-0.3-1.1,0.2C207.3,310.5,208.3,310.3,208.3,309.9z M212.3,308.9c-0.2-0.2-1,0.1-1,0.1&#10;&#9;C211.5,309.2,212.2,309.1,212.3,308.9z M228.8,308.4c-0.3-0.3-1.1,0.5-1,0.6C228,309.1,229.1,308.6,228.8,308.4z M217.4,307.5&#10;&#9;c0.3-0.4-0.4-0.5-0.6-0.1C216.7,308,217.2,307.9,217.4,307.5z M221.7,306.7c0-0.6-1.2-0.6-1.2,0&#10;&#9;C220.5,307.2,221.7,307.2,221.7,306.7z M-68.6,341.3c1.1-4.4,3.1-8.7,4.9-12.8c2.2-5,4.4-10,7-14.7c0.4-0.8,0.8-1.5,1.3-2.3&#10;&#9;c0.3-0.4,0.7-1.4,1.2-1.6c0.8-0.4,0.2,1,0.1,1.4c-0.4,1.3-0.9,2.6-1.4,3.8c-2,4.7-4.1,9.3-6.3,13.9c-1.3,2.7-2.5,5.5-3.9,8.2&#10;&#9;c-0.5,1-1,2.1-1.5,3.1c-0.2,0.4-0.7,1.7-1.2,1.9C-68.9,342.3-68.7,341.6-68.6,341.3C-67.2,335.5-69,343.1-68.6,341.3z M275.6,331.3&#10;&#9;c-2.3-4.6-4.4-9.3-6.9-13.8c-2.7-5.1-5.7-10-8.8-14.9c-6.8-10.7-14.3-20.9-22.4-30.7c-1.8-2.1-3.5-4.3-5.3-6.4&#10;&#9;c6.3,6.5,12.5,13,18,20.3c8.7,11.5,16.7,23.9,23.2,36.7c1.2,2.4,2.4,4.7,3.3,7.3c0.3,0.8,0.5,1.6,0.5,2.4c0,0.4,0.2,1.4-0.4,1.1&#10;&#9;C276.3,333,275.8,331.8,275.6,331.3z M-50.6,301.6c0-0.9,1-2.1,1.5-2.8c1.2-1.8,2.4-3.5,3.7-5.2c3.3-4.5,6.8-8.8,10.4-13.1&#10;&#9;c1.5-1.8,3.1-3.6,4.6-5.4c1-1.1,1.9-2.2,3.1-3.1c0.3-0.2,0.7-0.5,1-0.1c0.7,0.9-1.4,3.2-1.9,3.9c-2.7,3.4-5.6,6.7-8.4,10&#10;&#9;c-3.1,3.6-6.2,7.3-9.2,11c-1.2,1.5-2.3,3.1-3.6,4.5C-49.6,301.7-50.6,302.7-50.6,301.6z M-25.8,269c0-1.3,2.1-2.7,3-3.4&#10;&#9;c0.6-0.5,1.4-1.4,2.2-1.6c0.4-0.1,0.4-0.2,0.3,0.2c-0.1,0.6-1,1.4-1.4,1.8c-0.7,0.8-1.4,1.6-2.2,2.3&#10;&#9;C-24.2,268.7-25.8,270.3-25.8,269z M-16.3,261.8c1.9-2.5,4.5-4.5,6.8-6.6c2.8-2.5,5.6-4.8,8.5-7.1c2.5-1.9,5-3.7,7.6-5.4&#10;&#9;c0.5-0.3,5.4-3.5,5.7-3.1c0,0-9.9,7.9-10.6,8.5c-5.2,4.4-10.3,9-15.7,13.1c-0.8,0.6-1.5,1.2-2.4,1.7c-0.1,0.1-0.5,0.3-0.6,0.3&#10;&#9;C-17.3,263.1-16.4,262-16.3,261.8z M231.9,261c-1.3-0.9-3.8-3.1-5.6-2.4c-1,0.4-1.3,0.4-2.4-0.1c-0.8-0.4-1.5-0.8-2.2-1.2&#10;&#9;c-3.7-2.3-7.3-4.9-10.8-7.5c-3.6-2.7-7.2-5.4-10.5-8.4c-0.5-0.4-1-0.9-1.5-1.4c-0.2-0.2-0.8-0.7-0.8-1c0.1-0.5,1.6,0.5,1.8,0.7&#10;&#9;c5,3,9.5,6.7,14.3,10.1c2.4,1.7,4.8,3.4,7.3,4.8c0.4,0.2,4.4,2.3,4,0.8c-0.2-0.9-1.4-1.8-2-2.3c-1.2-1.1-2.5-2.1-3.3-3.5&#10;&#9;c-0.3-0.4-0.5-0.8-0.6-1.3c-0.1-0.5,0-1.1-0.3-1.6c-0.7-1.2-2-0.9-3.1-0.9c-2.8-0.1-5.6-2.4-7.6-4.1c-2.2-1.8-4.4-3.7-7-4.9&#10;&#9;c-1.8-0.9-3.8-1.4-5.6-2.3c-3.1-1.4-6.2-2.8-9.2-4.2c-5.3-2.5-10.6-5.2-15.9-7.5c-7.9-3.4-16.2-6.1-24.6-7.8&#10;&#9;c-11.8-2.4-23.9-3-35.8-3.3c-7.1-0.2-14.3-0.4-21.4-0.8c-2.3-0.1-4.6-0.3-6.9-0.5c-0.9-0.1-1.7-0.2-2.6-0.3&#10;&#9;c-0.9-0.1-2.3-0.3-3.1,0.3c-0.6,0.5-0.3,1.3-0.9,1.9c-0.9,0.9-2.5,1.1-3.6,1.3c-1.3,0.2-2.7,0.4-4,0.8c-4.6,1.2-9.1,2.7-13.6,4.2&#10;&#9;c-8.2,2.8-16.3,5.7-24.5,8.6c-0.8,0.3-1.6,0.6-2.4,0.9c1.7-1.6,3.3-3.3,5-4.9c2.3-2.3,4.7-4.7,7.4-6.6c2.3-1.6,5-2.5,7.7-3.3&#10;&#9;c4.2-1.3,8.6-2.2,13-3c10.3-2,20.9-3.5,31.4-4.2c7.1-0.4,14.3-0.4,21.4-0.4c6.7,0,13.4,0.1,20.1,1.1c2,0.3,4,0.7,5.9,1.3&#10;&#9;c0.8,0.3,2,0.6,2.4,1.4c0.2,0.3,0.1,0.5,0.4,0.7c0.5,0.4,1.3,0.5,1.9,0.6c2.4,0.5,4.9,0.5,7.3,0.7c4.8,0.4,9.6,1.1,14.3,2.3&#10;&#9;c5,1.3,9.8,3.2,14.4,5.3c5.2,2.3,10.2,4.9,15.1,7.7c3.5,2,7.1,4,10.2,6.6c0.6,0.5,1.5,1.2,1.8,2c0.2,0.5,0.1,0.9,0.6,1.2&#10;&#9;c0.8,0.7,2.2,0.7,3.2,0.7c2.2,0,3.9,0.3,5.8,1.4c1.7,1,3.3,2.3,4.8,3.6c3.8,3.5,7,7.7,9.8,12.1c1.3,2,2.6,4.1,3.6,6.3&#10;&#9;c0.2,0.4,1,1.9,0.2,2c-0.3,0.1-0.9-0.3-1.2-0.4C233.2,261.9,232.6,261.5,231.9,261z M-2.3,241.5c0-1.3,0.9-3,1.8-3.9&#10;&#9;c1-1.1,2.5-1.5,3.8-2.3c1.6-1,3.1-2.2,4.6-3.4c1.2-1,2.6-2,4.1-2.4c1.5-0.4,3-0.2,4.4,0.2c0.4,0.1,0.9,0.4,1.1,0&#10;&#9;c0.1-0.3-0.2-0.9-0.1-1.3c0.3-1.3,1.9-2.4,2.9-3.2c1.2-1,2.4-2,3.7-2.8c2.4-1.6,4.9-3.3,7.6-4.2c0.5-0.2,1.5-0.6,2-0.2&#10;&#9;c0.5,0.4-0.1,1.2-0.4,1.6c-2.2,3-5.2,5.5-8,7.9c-3.1,2.6-6.4,5-9.8,7.1c-3.8,2.4-7.8,4.4-12,6.1C2.8,240.9-2.3,243.2-2.3,241.5z&#10;&#9; M187.2,235.6c-4.1-1.8-8.1-3.8-12.2-5.6c-4.4-1.9-8.9-3.6-13.5-5.2c-4.9-1.7-9.9-3.1-14.9-4.4c-4.4-1.1-8.9-2-13.2-3.4&#10;&#9;c-0.2-0.1-1.9-0.5-1.8-1c0.1-0.5,3.6,0,4.2,0c3.2,0.4,6.3,1.1,9.4,1.9c8.3,2.1,16.5,4.7,24.5,7.8c4.2,1.6,8.4,3.4,12.4,5.5&#10;&#9;c1.9,1,3.9,2.1,5.7,3.3c0.2,0.2,1.9,1.1,1.8,1.4C189.5,236.4,187.5,235.7,187.2,235.6z M23.1,235.3c0.6-0.9,2-1.6,2.9-2.1&#10;&#9;c1.9-1.1,3.8-2.1,5.7-3c4-1.9,8-3.6,12.1-5.2c3.3-1.3,6.7-2.6,10.1-3.7c1.1-0.4,2.2-0.7,3.3-1c0.2-0.1,1.4-0.5,1.6-0.3&#10;&#9;c0.4,0.4-3.3,2.1-3.6,2.3c-1.9,0.9-3.8,1.8-5.8,2.7c-5.2,2.3-10.4,4.5-15.6,6.7c-2.5,1-4.9,2-7.4,3c-0.8,0.3-1.5,0.6-2.3,0.9&#10;&#9;C23.9,235.4,22.7,235.9,23.1,235.3z M65.1,218.6c2.2-1.3,5-1.6,7.5-1.9c1.6-0.2,3.2-0.3,4.8-0.4c0.9,0,2.1-0.2,3-0.1&#10;&#9;c0.4,0.1,0.5,0,0.2,0.2c-0.5,0.4-1.6,0.5-2.2,0.7c-2.4,0.7-4.9,1.1-7.4,1.5c-1.2,0.2-2.3,0.3-3.5,0.3c-0.6,0-1.4,0.1-2-0.1&#10;&#9;C65.3,218.9,64.8,218.8,65.1,218.6C67,217.5,64.7,218.9,65.1,218.6z M99.8,214.6c-1.2,0-2.3-0.1-3.5-0.2c-0.1,0-1,0-1.1-0.1&#10;&#9;c0,0,2.5-0.3,2.8-0.3c1.7-0.1,3.4-0.1,5.1-0.2c3.9-0.1,7.7,0,11.6,0.1c0.3,0,3.2,0,3.3,0.4c0,0.1-2.5,0.2-2.7,0.2&#10;&#9;c-2,0-4.1,0.1-6.1,0.1C106.1,214.7,102.9,214.7,99.8,214.6C94.4,214.4,102.9,214.7,99.8,214.6z"/></svg>